<?xml version="1.0" encoding="UTF-8" standalone="no"?>
<!-- Created with Inkscape (http://www.inkscape.org/) -->

<svg
   width="5.3016672mm"
   height="7.4183331mm"
   viewBox="0 0 5.3016672 7.4183331"
   version="1.1"
   id="svg1"
   xmlns="http://www.w3.org/2000/svg"
   xmlns:svg="http://www.w3.org/2000/svg">
  <defs
     id="defs1">
    <linearGradient
       id="swatch55">
      <stop
         style="stop-color:#999999;stop-opacity:1;"
         offset="0"
         id="stop55" />
    </linearGradient>
  </defs>
  <g
     id="layer8"
     transform="translate(-1.3179166,-39.153335)">
    <g
       id="g40">
      <path
         style="fill:#f9f9f9;fill-opacity:1;stroke:#000000;stroke-width:0.01;stroke-miterlimit:15;stroke-dasharray:none;stroke-opacity:1"
         d="m 1.3229166,39.793335 c 0,-0.423333 0.2116668,-0.635 0.6366536,-0.635 h 4.0514322 c 0.391916,0 0.6035812,0.211667 0.6035812,0.635 v 6.138333 c 0,0.423334 -0.2116679,0.635 -0.635,0.635 H 1.9579168 c -0.4233335,0 -0.6350002,-0.211668 -0.6350002,-0.635 z"
         id="path5732-14" />
      <text
         xml:space="preserve"
         style="font-style:normal;font-variant:normal;font-weight:normal;font-stretch:normal;font-size:0.489343px;line-height:0px;font-family:'Card Characters';-inkscape-font-specification:'Card Characters';fill:#000000;fill-opacity:1;stroke:none;stroke-width:0.00346779;stroke-miterlimit:15;stroke-dasharray:none;stroke-dashoffset:0;stroke-opacity:1"
         x="1.691268"
         y="39.407181"
         id="text5747-1-8-6-63"
         transform="scale(0.986662,1.0135183)"><tspan
           style="font-style:normal;font-variant:normal;font-weight:normal;font-stretch:normal;font-size:0.489343px;line-height:0px;font-family:'Card Characters';-inkscape-font-specification:'Card Characters';fill:#000000;stroke-width:0.00346779"
           id="tspan5748-2-1-2-13"
           x="1.691268"
           y="39.407181">A</tspan></text>
      <text
         xml:space="preserve"
         style="font-style:normal;font-variant:normal;font-weight:normal;font-stretch:normal;font-size:0.489343px;line-height:0px;font-family:'Card Characters';-inkscape-font-specification:'Card Characters';fill:#000000;fill-opacity:1;stroke:none;stroke-width:0.00346775;stroke-miterlimit:15;stroke-dasharray:none;stroke-dashoffset:0;stroke-opacity:1"
         x="-6.3535342"
         y="-45.174419"
         id="text5747-1-8-6-7-81"
         transform="scale(-0.986662,-1.0135183)"><tspan
           style="font-style:normal;font-variant:normal;font-weight:normal;font-stretch:normal;font-size:0.489343px;line-height:0px;font-family:'Card Characters';-inkscape-font-specification:'Card Characters';fill:#000000;stroke-width:0.00346775"
           id="tspan5748-2-1-2-4-51"
           x="-6.3535342"
           y="-45.174419">A</tspan></text>
      <g
         id="g5746-3-5"
         transform="matrix(1.9999993,0,0,1.9999993,-1.9579145,18.520845)">
        <path
           style="fill:#000000;fill-opacity:1;stroke:none;stroke-width:0.01;stroke-miterlimit:15;stroke-dasharray:none;stroke-dashoffset:0;stroke-opacity:1"
           d="M 2.963334,12.329585 C 2.910417,12.488316 2.9633334,12.594147 2.8575,12.7 H 3.0691667 C 2.9633334,12.594147 3.0162497,12.488316 2.963334,12.329585 Z"
           id="path5744-2-1-0-3" />
        <ellipse
           style="fill:#000000;fill-opacity:1;stroke:none;stroke-width:0.015;stroke-miterlimit:15;stroke-dasharray:none;stroke-dashoffset:0;stroke-opacity:1"
           id="path5745-80-3"
           cx="2.725209"
           cy="12.329585"
           rx="0.23812504"
           ry="0.23812523" />
        <ellipse
           style="fill:#000000;fill-opacity:1;stroke:none;stroke-width:0.015;stroke-miterlimit:15;stroke-dasharray:none;stroke-dashoffset:0;stroke-opacity:1"
           id="path5745-8-2-59"
           cx="3.2014585"
           cy="12.329583"
           rx="0.23812504"
           ry="0.23812523" />
        <ellipse
           style="fill:#000000;fill-opacity:1;stroke:none;stroke-width:0.015;stroke-miterlimit:15;stroke-dasharray:none;stroke-dashoffset:0;stroke-opacity:1"
           id="path5745-4-9-3"
           cx="2.9633336"
           cy="11.932709"
           rx="0.23812504"
           ry="0.23812523" />
        <path
           style="fill:#000000;fill-opacity:1;stroke:none;stroke-width:0.01;stroke-miterlimit:15;stroke-dasharray:none;stroke-dashoffset:0;stroke-opacity:1"
           d="m 2.8045834,12.117916 h 0.3175 L 2.9633335,12.3825 Z"
           id="path5746-5-36" />
      </g>
      <path
         style="fill:#800080;fill-opacity:1;stroke:none;stroke-width:0.01;stroke-miterlimit:15"
         d="m 4.4450001,43.603335 c 0.2116667,0 0.4233334,-0.211667 0.4233334,-0.423333 -0.15875,0.264583 -0.2116667,0.211666 -0.3704167,0.264583 -0.15875,0.05292 -0.2116667,0.15875 -0.052917,0.15875 z"
         id="path38-4-4-9" />
      <path
         style="fill:#800080;fill-opacity:1;stroke:none;stroke-width:0.01;stroke-miterlimit:15"
         d="m 3.4925001,43.603335 c 0.2116667,0 0.4233334,-0.211667 0.4233334,-0.423333 -0.15875,0.264583 -0.2116667,0.211666 -0.3704167,0.264583 -0.15875,0.05292 -0.2116667,0.15875 -0.052917,0.15875 z"
         id="path38-4-4-6-5" />
      <path
         style="fill:#f9f9f9;fill-opacity:1;stroke:none;stroke-width:0.01;stroke-miterlimit:15"
         d="m 3.4925001,42.756668 c -0.2116667,0 -0.4233334,0.211667 -0.4233334,0.423334 0.15875,-0.264584 0.2116667,-0.211667 0.3704167,-0.264584 0.15875,-0.05292 0.2116667,-0.15875 0.052917,-0.15875 z"
         id="path38-4-4-6-4-6" />
      <path
         style="fill:#f9f9f9;fill-opacity:1;stroke:none;stroke-width:0.01;stroke-miterlimit:15"
         d="m 3.9687502,41.962918 c -0.2116667,0 -0.4233334,0.211667 -0.4233334,0.423334 0.15875,-0.264584 0.2116667,-0.211667 0.3704167,-0.264584 0.15875,-0.05292 0.2116667,-0.15875 0.052917,-0.15875 z"
         id="path38-4-4-6-4-1-4" />
      <path
         style="fill:#800080;fill-opacity:1;stroke:none;stroke-width:0.01;stroke-miterlimit:15"
         d="m 4.3920835,42.386252 c 0,0.105833 -0.1058334,0.3175 -0.15875,0.3175 -0.052917,0 -0.052917,-0.05292 0,-0.105834 0.052917,-0.05292 0.098857,-0.115214 0.15875,-0.211666 z"
         id="path39-2" />
      <path
         style="fill:#ffffff;fill-opacity:1;stroke:none;stroke-width:0.01;stroke-miterlimit:15"
         d="m 4.2333335,42.809585 c 0.1058333,-0.05292 0.2116666,-0.05292 0.2645833,-0.05292 0.1058334,0 0.1058334,0.05292 0,0.05292 -0.052917,0 -0.1058333,-0.05292 -0.2645833,0 z"
         id="path39-7-2" />
      <g
         id="g5746-5-8"
         transform="matrix(0.27777748,0,0,0.27777748,1.0024778,36.809426)">
        <path
           style="fill:#000000;fill-opacity:1;stroke:none;stroke-width:0.01;stroke-miterlimit:15;stroke-dasharray:none;stroke-dashoffset:0;stroke-opacity:1"
           d="M 2.963334,12.329585 C 2.910417,12.488316 2.9633334,12.594147 2.8575,12.7 H 3.0691667 C 2.9633334,12.594147 3.0162497,12.488316 2.963334,12.329585 Z"
           id="path5744-2-1-4-1" />
        <ellipse
           style="fill:#000000;fill-opacity:1;stroke:none;stroke-width:0.015;stroke-miterlimit:15;stroke-dasharray:none;stroke-dashoffset:0;stroke-opacity:1"
           id="path5745-1-8"
           cx="2.725209"
           cy="12.329585"
           rx="0.23812504"
           ry="0.23812523" />
        <ellipse
           style="fill:#000000;fill-opacity:1;stroke:none;stroke-width:0.015;stroke-miterlimit:15;stroke-dasharray:none;stroke-dashoffset:0;stroke-opacity:1"
           id="path5745-8-7-8"
           cx="3.2014585"
           cy="12.329583"
           rx="0.23812504"
           ry="0.23812523" />
        <ellipse
           style="fill:#000000;fill-opacity:1;stroke:none;stroke-width:0.015;stroke-miterlimit:15;stroke-dasharray:none;stroke-dashoffset:0;stroke-opacity:1"
           id="path5745-4-4-1"
           cx="2.9633336"
           cy="11.932709"
           rx="0.23812504"
           ry="0.23812523" />
        <path
           style="fill:#000000;fill-opacity:1;stroke:none;stroke-width:0.01;stroke-miterlimit:15;stroke-dasharray:none;stroke-dashoffset:0;stroke-opacity:1"
           d="m 2.8045834,12.117916 h 0.3175 L 2.9633335,12.3825 Z"
           id="path5746-6-6" />
      </g>
      <g
         id="g5746-5-3-1"
         transform="matrix(0.27777748,0,0,-0.27777748,5.2887277,48.915577)">
        <path
           style="fill:#000000;fill-opacity:1;stroke:none;stroke-width:0.01;stroke-miterlimit:15;stroke-dasharray:none;stroke-dashoffset:0;stroke-opacity:1"
           d="M 2.963334,12.329585 C 2.910417,12.488316 2.9633334,12.594147 2.8575,12.7 H 3.0691667 C 2.9633334,12.594147 3.0162497,12.488316 2.963334,12.329585 Z"
           id="path5744-2-1-4-6-6" />
        <ellipse
           style="fill:#000000;fill-opacity:1;stroke:none;stroke-width:0.015;stroke-miterlimit:15;stroke-dasharray:none;stroke-dashoffset:0;stroke-opacity:1"
           id="path5745-1-3-2"
           cx="2.725209"
           cy="12.329585"
           rx="0.23812504"
           ry="0.23812523" />
        <ellipse
           style="fill:#000000;fill-opacity:1;stroke:none;stroke-width:0.015;stroke-miterlimit:15;stroke-dasharray:none;stroke-dashoffset:0;stroke-opacity:1"
           id="path5745-8-7-5-2"
           cx="3.2014585"
           cy="12.329583"
           rx="0.23812504"
           ry="0.23812523" />
        <ellipse
           style="fill:#000000;fill-opacity:1;stroke:none;stroke-width:0.015;stroke-miterlimit:15;stroke-dasharray:none;stroke-dashoffset:0;stroke-opacity:1"
           id="path5745-4-4-8-9"
           cx="2.9633336"
           cy="11.932709"
           rx="0.23812504"
           ry="0.23812523" />
        <path
           style="fill:#000000;fill-opacity:1;stroke:none;stroke-width:0.01;stroke-miterlimit:15;stroke-dasharray:none;stroke-dashoffset:0;stroke-opacity:1"
           d="m 2.8045834,12.117916 h 0.3175 L 2.9633335,12.3825 Z"
           id="path5746-6-4-9" />
      </g>
    </g>
  </g>
</svg>
