<?xml version="1.0" encoding="UTF-8" standalone="no"?>
<!-- Created with Inkscape (http://www.inkscape.org/) -->

<svg
   width="5.3016672mm"
   height="7.4183331mm"
   viewBox="0 0 5.3016672 7.4183331"
   version="1.1"
   id="svg1"
   xmlns="http://www.w3.org/2000/svg"
   xmlns:svg="http://www.w3.org/2000/svg">
  <defs
     id="defs1">
    <linearGradient
       id="swatch55">
      <stop
         style="stop-color:#999999;stop-opacity:1;"
         offset="0"
         id="stop55" />
    </linearGradient>
  </defs>
  <g
     id="layer6"
     transform="translate(-42.063751,-22.749167)">
    <g
       id="g35">
      <path
         style="fill:#f9f9f9;fill-opacity:1;stroke:#000000;stroke-width:0.01;stroke-miterlimit:15;stroke-dasharray:none;stroke-opacity:1"
         d="m 42.068751,23.389167 c 0,-0.423333 0.211667,-0.635 0.636654,-0.635 h 4.051432 c 0.391916,0 0.603581,0.211667 0.603581,0.635 V 29.5275 c 0,0.423334 -0.211668,0.635 -0.635,0.635 h -4.021667 c -0.423333,0 -0.635,-0.211668 -0.635,-0.635 z"
         id="path5732-536" />
      <text
         xml:space="preserve"
         style="font-style:normal;font-variant:normal;font-weight:normal;font-stretch:normal;font-size:0.485797px;line-height:0px;font-family:'Card Characters';-inkscape-font-specification:'Card Characters';fill:#ff0000;fill-opacity:1;stroke:none;stroke-width:0.00344266;stroke-miterlimit:15;stroke-dasharray:none;stroke-dashoffset:0;stroke-opacity:1"
         x="42.989071"
         y="23.222759"
         id="text5747-1-8-6-24"
         transform="scale(0.986662,1.0135183)"><tspan
           style="font-style:normal;font-variant:normal;font-weight:normal;font-stretch:normal;font-size:0.485797px;line-height:0px;font-family:'Card Characters';-inkscape-font-specification:'Card Characters';fill:#ff0000;stroke-width:0.00344266"
           id="tspan5748-2-1-2-24"
           x="42.989071"
           y="23.222759">8</tspan></text>
      <text
         xml:space="preserve"
         style="font-style:normal;font-variant:normal;font-weight:normal;font-stretch:normal;font-size:0.485797px;line-height:0px;font-family:'Card Characters';-inkscape-font-specification:'Card Characters';fill:#ff0000;fill-opacity:1;stroke:none;stroke-width:0.00344263;stroke-miterlimit:15;stroke-dasharray:none;stroke-dashoffset:0;stroke-opacity:1"
         x="-47.649033"
         y="-28.988104"
         id="text5747-1-8-6-7-08"
         transform="scale(-0.986662,-1.0135183)"><tspan
           style="font-style:normal;font-variant:normal;font-weight:normal;font-stretch:normal;font-size:0.485797px;line-height:0px;font-family:'Card Characters';-inkscape-font-specification:'Card Characters';fill:#ff0000;stroke-width:0.00344263"
           id="tspan5748-2-1-2-4-37"
           x="-47.649033"
           y="-28.988104">8</tspan></text>
      <path
         style="fill:#ff0000;fill-opacity:1;stroke:none;stroke-width:0.01;stroke-miterlimit:15;stroke-dasharray:none;stroke-dashoffset:0;stroke-opacity:1"
         d="m 43.656251,23.759584 c -0.105833,0.264584 -0.211667,0.47625 -0.370417,0.635 0.15875,0.15875 0.264584,0.370417 0.370417,0.635 0.105833,-0.264583 0.211667,-0.47625 0.370417,-0.635 -0.15875,-0.15875 -0.264584,-0.370416 -0.370417,-0.635 z"
         id="path5747-5-17" />
      <path
         style="fill:#ff0000;fill-opacity:1;stroke:none;stroke-width:0.01;stroke-miterlimit:15;stroke-dasharray:none;stroke-dashoffset:0;stroke-opacity:1"
         d="m 45.772918,23.759584 c -0.105833,0.264584 -0.211667,0.47625 -0.370417,0.635 0.15875,0.15875 0.264584,0.370417 0.370417,0.635 0.105833,-0.264583 0.211667,-0.47625 0.370417,-0.635 -0.15875,-0.15875 -0.264584,-0.370416 -0.370417,-0.635 z"
         id="path5747-5-8-42" />
      <path
         style="fill:#ff0000;fill-opacity:1;stroke:none;stroke-width:0.01;stroke-miterlimit:15;stroke-dasharray:none;stroke-dashoffset:0;stroke-opacity:1"
         d="m 43.656251,27.887084 c -0.105833,0.264584 -0.211667,0.47625 -0.370417,0.635 0.15875,0.15875 0.264584,0.370417 0.370417,0.635 0.105833,-0.264583 0.211667,-0.47625 0.370417,-0.635 -0.15875,-0.15875 -0.264584,-0.370416 -0.370417,-0.635 z"
         id="path5747-5-6-40" />
      <path
         style="fill:#ff0000;fill-opacity:1;stroke:none;stroke-width:0.01;stroke-miterlimit:15;stroke-dasharray:none;stroke-dashoffset:0;stroke-opacity:1"
         d="m 43.656251,25.823334 c -0.105833,0.264584 -0.211667,0.47625 -0.370417,0.635 0.15875,0.15875 0.264584,0.370417 0.370417,0.635 0.105833,-0.264583 0.211667,-0.47625 0.370417,-0.635 -0.15875,-0.15875 -0.264584,-0.370416 -0.370417,-0.635 z"
         id="path5747-5-6-1-02" />
      <path
         style="fill:#ff0000;fill-opacity:1;stroke:none;stroke-width:0.01;stroke-miterlimit:15;stroke-dasharray:none;stroke-dashoffset:0;stroke-opacity:1"
         d="m 44.714585,24.765 c -0.105834,0.264584 -0.211667,0.47625 -0.370417,0.635 0.15875,0.15875 0.264583,0.370417 0.370417,0.635 0.105833,-0.264583 0.211666,-0.47625 0.370416,-0.635 -0.15875,-0.15875 -0.264583,-0.370416 -0.370416,-0.635 z"
         id="path5747-5-6-1-2-43" />
      <path
         style="fill:#ff0000;fill-opacity:1;stroke:none;stroke-width:0.01;stroke-miterlimit:15;stroke-dasharray:none;stroke-dashoffset:0;stroke-opacity:1"
         d="m 44.714585,26.881667 c -0.105834,0.264584 -0.211667,0.47625 -0.370417,0.635 0.15875,0.15875 0.264583,0.370417 0.370417,0.635 0.105833,-0.264583 0.211666,-0.47625 0.370416,-0.635 -0.15875,-0.15875 -0.264583,-0.370416 -0.370416,-0.635 z"
         id="path5747-5-6-1-2-6-9" />
      <path
         style="fill:#ff0000;fill-opacity:1;stroke:none;stroke-width:0.01;stroke-miterlimit:15;stroke-dasharray:none;stroke-dashoffset:0;stroke-opacity:1"
         d="m 45.772918,25.823334 c -0.105833,0.264584 -0.211667,0.47625 -0.370417,0.635 0.15875,0.15875 0.264584,0.370417 0.370417,0.635 0.105833,-0.264583 0.211667,-0.47625 0.370417,-0.635 -0.15875,-0.15875 -0.264584,-0.370416 -0.370417,-0.635 z"
         id="path5747-5-6-1-9-9" />
      <path
         style="fill:#ff0000;fill-opacity:1;stroke:none;stroke-width:0.01;stroke-miterlimit:15;stroke-dasharray:none;stroke-dashoffset:0;stroke-opacity:1"
         d="m 45.772918,27.887084 c -0.105833,0.264584 -0.211667,0.47625 -0.370417,0.635 0.15875,0.15875 0.264584,0.370417 0.370417,0.635 0.105833,-0.264583 0.211667,-0.47625 0.370417,-0.635 -0.15875,-0.15875 -0.264584,-0.370416 -0.370417,-0.635 z"
         id="path5747-5-6-6-342" />
      <path
         style="fill:#ff0000;fill-opacity:1;stroke:none;stroke-width:0.00357143;stroke-miterlimit:15;stroke-dasharray:none;stroke-dashoffset:0;stroke-opacity:1"
         d="m 42.571459,23.65375 c -0.0378,0.09449 -0.07559,0.17009 -0.132291,0.226786 0.0567,0.0567 0.09449,0.132292 0.132291,0.226786 0.0378,-0.09449 0.0756,-0.17009 0.132292,-0.226786 -0.0567,-0.0567 -0.09449,-0.132291 -0.132292,-0.226786 z"
         id="path5747-5-3-74" />
      <path
         style="fill:#ff0000;fill-opacity:1;stroke:none;stroke-width:0.00357143;stroke-miterlimit:15;stroke-dasharray:none;stroke-dashoffset:0;stroke-opacity:1"
         d="m 46.85771,28.809345 c -0.0378,0.0945 -0.07559,0.17009 -0.132292,0.226786 0.0567,0.0567 0.09449,0.132292 0.132292,0.226786 0.0378,-0.09449 0.07559,-0.170089 0.132291,-0.226786 -0.0567,-0.0567 -0.09449,-0.132291 -0.132291,-0.226786 z"
         id="path5747-5-3-7-81" />
    </g>
  </g>
</svg>
