<?xml version="1.0" encoding="UTF-8" standalone="no"?>
<!-- Created with Inkscape (http://www.inkscape.org/) -->

<svg
   width="5.3016672mm"
   height="7.4183331mm"
   viewBox="0 0 5.3016672 7.4183331"
   version="1.1"
   id="svg1"
   xmlns="http://www.w3.org/2000/svg"
   xmlns:svg="http://www.w3.org/2000/svg">
  <defs
     id="defs1">
    <linearGradient
       id="swatch55">
      <stop
         style="stop-color:#999999;stop-opacity:1;"
         offset="0"
         id="stop55" />
    </linearGradient>
  </defs>
  <g
     id="layer6"
     transform="translate(-47.884586,-22.749165)">
    <g
       id="g36">
      <path
         style="fill:#f9f9f9;fill-opacity:1;stroke:#000000;stroke-width:0.01;stroke-miterlimit:15;stroke-dasharray:none;stroke-opacity:1"
         d="m 47.889586,23.389165 c 0,-0.423333 0.211667,-0.635 0.636654,-0.635 h 4.051432 c 0.391916,0 0.603581,0.211667 0.603581,0.635 v 6.138333 c 0,0.423334 -0.211668,0.635 -0.635,0.635 h -4.021667 c -0.423333,0 -0.635,-0.211668 -0.635,-0.635 z"
         id="path5732-32" />
      <text
         xml:space="preserve"
         style="font-style:normal;font-variant:normal;font-weight:normal;font-stretch:normal;font-size:0.489343px;line-height:0px;font-family:'Card Characters';-inkscape-font-specification:'Card Characters';fill:#ff0000;fill-opacity:1;stroke:none;stroke-width:0.00346779;stroke-miterlimit:15;stroke-dasharray:none;stroke-dashoffset:0;stroke-opacity:1"
         x="48.88744"
         y="23.229153"
         id="text5747-1-8-6-31"
         transform="scale(0.986662,1.0135183)"><tspan
           style="font-style:normal;font-variant:normal;font-weight:normal;font-stretch:normal;font-size:0.489343px;line-height:0px;font-family:'Card Characters';-inkscape-font-specification:'Card Characters';fill:#ff0000;stroke-width:0.00346779"
           id="tspan5748-2-1-2-71"
           x="48.88744"
           y="23.229153">9</tspan></text>
      <text
         xml:space="preserve"
         style="font-style:normal;font-variant:normal;font-weight:normal;font-stretch:normal;font-size:0.489344px;line-height:0px;font-family:'Card Characters';-inkscape-font-specification:'Card Characters';fill:#ff0000;fill-opacity:1;stroke:none;stroke-width:0.00346776;stroke-miterlimit:15;stroke-dasharray:none;stroke-dashoffset:0;stroke-opacity:1"
         x="-53.549706"
         y="-28.981709"
         id="text5747-1-8-6-7-2"
         transform="scale(-0.986662,-1.0135183)"><tspan
           style="font-style:normal;font-variant:normal;font-weight:normal;font-stretch:normal;font-size:0.489344px;line-height:0px;font-family:'Card Characters';-inkscape-font-specification:'Card Characters';fill:#ff0000;stroke-width:0.00346776"
           id="tspan5748-2-1-2-4-355"
           x="-53.549706"
           y="-28.981709">9</tspan></text>
      <path
         style="fill:#ff0000;fill-opacity:1;stroke:none;stroke-width:0.01;stroke-miterlimit:15;stroke-dasharray:none;stroke-dashoffset:0;stroke-opacity:1"
         d="m 49.477086,23.759582 c -0.105833,0.264584 -0.211667,0.47625 -0.370417,0.635 0.15875,0.15875 0.264584,0.370417 0.370417,0.635 0.105833,-0.264583 0.211667,-0.47625 0.370417,-0.635 -0.15875,-0.15875 -0.264584,-0.370416 -0.370417,-0.635 z"
         id="path5747-5-62" />
      <path
         style="fill:#ff0000;fill-opacity:1;stroke:none;stroke-width:0.01;stroke-miterlimit:15;stroke-dasharray:none;stroke-dashoffset:0;stroke-opacity:1"
         d="m 51.593753,23.759582 c -0.105833,0.264584 -0.211667,0.47625 -0.370417,0.635 0.15875,0.15875 0.264584,0.370417 0.370417,0.635 0.105833,-0.264583 0.211667,-0.47625 0.370417,-0.635 -0.15875,-0.15875 -0.264584,-0.370416 -0.370417,-0.635 z"
         id="path5747-5-8-3" />
      <path
         style="fill:#ff0000;fill-opacity:1;stroke:none;stroke-width:0.01;stroke-miterlimit:15;stroke-dasharray:none;stroke-dashoffset:0;stroke-opacity:1"
         d="m 49.477086,27.887082 c -0.105833,0.264584 -0.211667,0.47625 -0.370417,0.635 0.15875,0.15875 0.264584,0.370417 0.370417,0.635 0.105833,-0.264583 0.211667,-0.47625 0.370417,-0.635 -0.15875,-0.15875 -0.264584,-0.370416 -0.370417,-0.635 z"
         id="path5747-5-6-0" />
      <path
         style="fill:#ff0000;fill-opacity:1;stroke:none;stroke-width:0.01;stroke-miterlimit:15;stroke-dasharray:none;stroke-dashoffset:0;stroke-opacity:1"
         d="m 49.477086,25.135415 c -0.105833,0.264584 -0.211667,0.47625 -0.370417,0.635 0.15875,0.15875 0.264584,0.370417 0.370417,0.635 0.105833,-0.264583 0.211667,-0.47625 0.370417,-0.635 -0.15875,-0.15875 -0.264584,-0.370416 -0.370417,-0.635 z"
         id="path5747-5-6-1-3" />
      <path
         style="fill:#ff0000;fill-opacity:1;stroke:none;stroke-width:0.01;stroke-miterlimit:15;stroke-dasharray:none;stroke-dashoffset:0;stroke-opacity:1"
         d="m 51.593753,25.135415 c -0.105833,0.264584 -0.211667,0.47625 -0.370417,0.635 0.15875,0.15875 0.264584,0.370417 0.370417,0.635 0.105833,-0.264583 0.211667,-0.47625 0.370417,-0.635 -0.15875,-0.15875 -0.264584,-0.370416 -0.370417,-0.635 z"
         id="path5747-5-6-1-2-9" />
      <path
         style="fill:#ff0000;fill-opacity:1;stroke:none;stroke-width:0.01;stroke-miterlimit:15;stroke-dasharray:none;stroke-dashoffset:0;stroke-opacity:1"
         d="m 50.53542,25.823332 c -0.105834,0.264584 -0.211667,0.47625 -0.370417,0.635 0.15875,0.15875 0.264583,0.370417 0.370417,0.635 0.105833,-0.264583 0.211666,-0.47625 0.370416,-0.635 -0.15875,-0.15875 -0.264583,-0.370416 -0.370416,-0.635 z"
         id="path5747-5-6-1-2-7-4" />
      <path
         style="fill:#ff0000;fill-opacity:1;stroke:none;stroke-width:0.01;stroke-miterlimit:15;stroke-dasharray:none;stroke-dashoffset:0;stroke-opacity:1"
         d="m 49.477086,26.511248 c -0.105833,0.264584 -0.211667,0.47625 -0.370417,0.635 0.15875,0.15875 0.264584,0.370417 0.370417,0.635 0.105833,-0.264583 0.211667,-0.47625 0.370417,-0.635 -0.15875,-0.15875 -0.264584,-0.370416 -0.370417,-0.635 z"
         id="path5747-5-6-1-2-6-8" />
      <path
         style="fill:#ff0000;fill-opacity:1;stroke:none;stroke-width:0.01;stroke-miterlimit:15;stroke-dasharray:none;stroke-dashoffset:0;stroke-opacity:1"
         d="m 51.593753,26.511248 c -0.105833,0.264584 -0.211667,0.47625 -0.370417,0.635 0.15875,0.15875 0.264584,0.370417 0.370417,0.635 0.105833,-0.264583 0.211667,-0.47625 0.370417,-0.635 -0.15875,-0.15875 -0.264584,-0.370416 -0.370417,-0.635 z"
         id="path5747-5-6-1-9-7" />
      <path
         style="fill:#ff0000;fill-opacity:1;stroke:none;stroke-width:0.01;stroke-miterlimit:15;stroke-dasharray:none;stroke-dashoffset:0;stroke-opacity:1"
         d="m 51.593753,27.887082 c -0.105833,0.264584 -0.211667,0.47625 -0.370417,0.635 0.15875,0.15875 0.264584,0.370417 0.370417,0.635 0.105833,-0.264583 0.211667,-0.47625 0.370417,-0.635 -0.15875,-0.15875 -0.264584,-0.370416 -0.370417,-0.635 z"
         id="path5747-5-6-6-7" />
      <path
         style="fill:#ff0000;fill-opacity:1;stroke:none;stroke-width:0.00357143;stroke-miterlimit:15;stroke-dasharray:none;stroke-dashoffset:0;stroke-opacity:1"
         d="m 48.392294,23.653748 c -0.0378,0.09449 -0.07559,0.17009 -0.132291,0.226786 0.0567,0.0567 0.09449,0.132292 0.132291,0.226786 0.0378,-0.09449 0.0756,-0.17009 0.132292,-0.226786 -0.0567,-0.0567 -0.09449,-0.132291 -0.132292,-0.226786 z"
         id="path5747-5-3-9" />
      <path
         style="fill:#ff0000;fill-opacity:1;stroke:none;stroke-width:0.00357143;stroke-miterlimit:15;stroke-dasharray:none;stroke-dashoffset:0;stroke-opacity:1"
         d="m 52.678545,28.809343 c -0.0378,0.0945 -0.07559,0.17009 -0.132292,0.226786 0.0567,0.0567 0.09449,0.132292 0.132292,0.226786 0.0378,-0.09449 0.07559,-0.170089 0.132291,-0.226786 -0.0567,-0.0567 -0.09449,-0.132291 -0.132291,-0.226786 z"
         id="path5747-5-3-7-9" />
    </g>
  </g>
</svg>
