<?xml version="1.0" encoding="UTF-8" standalone="no"?>
<!-- Created with Inkscape (http://www.inkscape.org/) -->

<svg
   width="5.3016672mm"
   height="7.4183331mm"
   viewBox="0 0 5.3016672 7.4183331"
   version="1.1"
   id="svg1"
   xmlns="http://www.w3.org/2000/svg"
   xmlns:svg="http://www.w3.org/2000/svg">
  <defs
     id="defs1">
    <linearGradient
       id="swatch55">
      <stop
         style="stop-color:#999999;stop-opacity:1;"
         offset="0"
         id="stop55" />
    </linearGradient>
  </defs>
  <g
     id="layer6"
     transform="translate(-53.705419,-22.749167)">
    <g
       id="g11">
      <path
         style="fill:#f9f9f9;fill-opacity:1;stroke:#000000;stroke-width:0.01;stroke-miterlimit:15;stroke-dasharray:none;stroke-opacity:1"
         d="m 53.710419,23.389167 c 0,-0.423333 0.211667,-0.635 0.636654,-0.635 h 4.051432 c 0.391916,0 0.603581,0.211667 0.603581,0.635 V 29.5275 c 0,0.423334 -0.211668,0.635 -0.635,0.635 h -4.021667 c -0.423333,0 -0.635,-0.211668 -0.635,-0.635 z"
         id="path5732-0" />
      <text
         xml:space="preserve"
         style="font-style:normal;font-variant:normal;font-weight:normal;font-stretch:normal;font-size:0.503712px;line-height:0px;font-family:'Card Characters Narrow Figures';-inkscape-font-specification:'Card Characters Narrow Figures, Normal';font-variant-ligatures:normal;font-variant-caps:normal;font-variant-numeric:normal;font-variant-east-asian:normal;fill:#ff0000;fill-opacity:1;stroke:none;stroke-width:0.00356963;stroke-miterlimit:15;stroke-dasharray:none;stroke-dashoffset:0;stroke-opacity:1"
         x="52.381573"
         y="24.281408"
         id="text5747-9"
         transform="scale(1.0316194,0.96934974)"><tspan
           id="tspan5747-83"
           style="font-style:normal;font-variant:normal;font-weight:normal;font-stretch:normal;font-size:0.503712px;line-height:0px;font-family:'Card Characters Narrow Figures';-inkscape-font-specification:'Card Characters Narrow Figures, Normal';font-variant-ligatures:normal;font-variant-caps:normal;font-variant-numeric:normal;font-variant-east-asian:normal;stroke-width:0.00356963"
           x="52.381573"
           y="24.281408" /><tspan
           style="font-style:normal;font-variant:normal;font-weight:normal;font-stretch:normal;font-size:0.503712px;line-height:0px;font-family:'Card Characters Narrow Figures';-inkscape-font-specification:'Card Characters Narrow Figures, Normal';font-variant-ligatures:normal;font-variant-caps:normal;font-variant-numeric:normal;font-variant-east-asian:normal;stroke-width:0.00356963"
           id="tspan5748-79"
           x="52.381573"
           y="24.281408">10</tspan></text>
      <text
         xml:space="preserve"
         style="font-style:normal;font-variant:normal;font-weight:normal;font-stretch:normal;font-size:0.507661px;line-height:0px;font-family:'Card Characters Narrow Figures';-inkscape-font-specification:'Card Characters Narrow Figures, Normal';font-variant-ligatures:normal;font-variant-caps:normal;font-variant-numeric:normal;font-variant-east-asian:normal;fill:#ff0000;fill-opacity:1;stroke:none;stroke-width:0.00359759;stroke-miterlimit:15;stroke-dasharray:none;stroke-dashoffset:0;stroke-opacity:1"
         x="-57.325302"
         y="-30.066088"
         id="text5747-1-23"
         transform="scale(-1.0235961,-0.97694784)"><tspan
           style="font-style:normal;font-variant:normal;font-weight:normal;font-stretch:normal;font-size:0.507661px;line-height:0px;font-family:'Card Characters Narrow Figures';-inkscape-font-specification:'Card Characters Narrow Figures, Normal';font-variant-ligatures:normal;font-variant-caps:normal;font-variant-numeric:normal;font-variant-east-asian:normal;stroke-width:0.00359759"
           id="tspan5748-2-7"
           x="-57.325302"
           y="-30.066088">10</tspan></text>
      <path
         style="fill:#ff0000;fill-opacity:1;stroke:none;stroke-width:0.01;stroke-miterlimit:15;stroke-dasharray:none;stroke-dashoffset:0;stroke-opacity:1"
         d="m 55.297919,27.887084 c -0.105833,0.264584 -0.211667,0.47625 -0.370417,0.635 0.15875,0.15875 0.264584,0.370417 0.370417,0.635 0.105833,-0.264583 0.211667,-0.47625 0.370417,-0.635 -0.15875,-0.15875 -0.264584,-0.370416 -0.370417,-0.635 z"
         id="path5747-4-47" />
      <path
         style="fill:#ff0000;fill-opacity:1;stroke:none;stroke-width:0.01;stroke-miterlimit:15;stroke-dasharray:none;stroke-dashoffset:0;stroke-opacity:1"
         d="m 55.297919,26.51125 c -0.105833,0.264584 -0.211667,0.47625 -0.370417,0.635 0.15875,0.15875 0.264584,0.370417 0.370417,0.635 0.105833,-0.264583 0.211667,-0.47625 0.370417,-0.635 -0.15875,-0.15875 -0.264584,-0.370416 -0.370417,-0.635 z"
         id="path5747-4-3-4" />
      <path
         style="fill:#ff0000;fill-opacity:1;stroke:none;stroke-width:0.01;stroke-miterlimit:15;stroke-dasharray:none;stroke-dashoffset:0;stroke-opacity:1"
         d="m 55.297919,25.135417 c -0.105833,0.264584 -0.211667,0.47625 -0.370417,0.635 0.15875,0.15875 0.264584,0.370417 0.370417,0.635 0.105833,-0.264583 0.211667,-0.47625 0.370417,-0.635 -0.15875,-0.15875 -0.264584,-0.370416 -0.370417,-0.635 z"
         id="path5747-4-4-7" />
      <path
         style="fill:#ff0000;fill-opacity:1;stroke:none;stroke-width:0.01;stroke-miterlimit:15;stroke-dasharray:none;stroke-dashoffset:0;stroke-opacity:1"
         d="m 55.297919,23.759584 c -0.105833,0.264584 -0.211667,0.47625 -0.370417,0.635 0.15875,0.15875 0.264584,0.370417 0.370417,0.635 0.105833,-0.264583 0.211667,-0.47625 0.370417,-0.635 -0.15875,-0.15875 -0.264584,-0.370416 -0.370417,-0.635 z"
         id="path5747-4-46-7" />
      <path
         style="fill:#ff0000;fill-opacity:1;stroke:none;stroke-width:0.01;stroke-miterlimit:15;stroke-dasharray:none;stroke-dashoffset:0;stroke-opacity:1"
         d="m 57.414586,23.759584 c -0.105833,0.264584 -0.211667,0.47625 -0.370417,0.635 0.15875,0.15875 0.264584,0.370417 0.370417,0.635 0.105833,-0.264583 0.211667,-0.47625 0.370417,-0.635 -0.15875,-0.15875 -0.264584,-0.370416 -0.370417,-0.635 z"
         id="path5747-4-8-4" />
      <path
         style="fill:#ff0000;fill-opacity:1;stroke:none;stroke-width:0.01;stroke-miterlimit:15;stroke-dasharray:none;stroke-dashoffset:0;stroke-opacity:1"
         d="m 57.414586,25.135417 c -0.105833,0.264584 -0.211667,0.47625 -0.370417,0.635 0.15875,0.15875 0.264584,0.370417 0.370417,0.635 0.105833,-0.264583 0.211667,-0.47625 0.370417,-0.635 -0.15875,-0.15875 -0.264584,-0.370416 -0.370417,-0.635 z"
         id="path5747-4-89-8" />
      <path
         style="fill:#ff0000;fill-opacity:1;stroke:none;stroke-width:0.01;stroke-miterlimit:15;stroke-dasharray:none;stroke-dashoffset:0;stroke-opacity:1"
         d="m 57.414586,26.51125 c -0.105833,0.264584 -0.211667,0.47625 -0.370417,0.635 0.15875,0.15875 0.264584,0.370417 0.370417,0.635 0.105833,-0.264583 0.211667,-0.47625 0.370417,-0.635 -0.15875,-0.15875 -0.264584,-0.370416 -0.370417,-0.635 z"
         id="path5747-4-45-2" />
      <path
         style="fill:#ff0000;fill-opacity:1;stroke:none;stroke-width:0.01;stroke-miterlimit:15;stroke-dasharray:none;stroke-dashoffset:0;stroke-opacity:1"
         d="m 57.414586,27.887084 c -0.105833,0.264584 -0.211667,0.47625 -0.370417,0.635 0.15875,0.15875 0.264584,0.370417 0.370417,0.635 0.105833,-0.264583 0.211667,-0.47625 0.370417,-0.635 -0.15875,-0.15875 -0.264584,-0.370416 -0.370417,-0.635 z"
         id="path5747-4-34-2" />
      <path
         style="fill:#ff0000;fill-opacity:1;stroke:none;stroke-width:0.01;stroke-miterlimit:15;stroke-dasharray:none;stroke-dashoffset:0;stroke-opacity:1"
         d="m 56.356253,27.199167 c -0.105834,0.264584 -0.211667,0.47625 -0.370417,0.635 0.15875,0.15875 0.264583,0.370417 0.370417,0.635 0.105833,-0.264583 0.211666,-0.47625 0.370416,-0.635 -0.15875,-0.15875 -0.264583,-0.370416 -0.370416,-0.635 z"
         id="path5747-4-7-4" />
      <path
         style="fill:#ff0000;fill-opacity:1;stroke:none;stroke-width:0.01;stroke-miterlimit:15;stroke-dasharray:none;stroke-dashoffset:0;stroke-opacity:1"
         d="m 56.356253,24.4475 c -0.105834,0.264584 -0.211667,0.47625 -0.370417,0.635 0.15875,0.15875 0.264583,0.370417 0.370417,0.635 0.105833,-0.264583 0.211666,-0.47625 0.370416,-0.635 -0.15875,-0.15875 -0.264583,-0.370416 -0.370416,-0.635 z"
         id="path5747-4-76-6" />
      <path
         style="fill:#ff0000;fill-opacity:1;stroke:none;stroke-width:0.00357143;stroke-miterlimit:15;stroke-dasharray:none;stroke-dashoffset:0;stroke-opacity:1"
         d="m 54.213127,23.65375 c -0.0378,0.09449 -0.07559,0.17009 -0.132291,0.226786 0.0567,0.0567 0.09449,0.132292 0.132291,0.226786 0.0378,-0.09449 0.0756,-0.17009 0.132292,-0.226786 -0.0567,-0.0567 -0.09449,-0.132291 -0.132292,-0.226786 z"
         id="path5747-4-1-0" />
      <path
         style="fill:#ff0000;fill-opacity:1;stroke:none;stroke-width:0.00357143;stroke-miterlimit:15;stroke-dasharray:none;stroke-dashoffset:0;stroke-opacity:1"
         d="m 58.499378,28.824465 c -0.0378,0.09449 -0.0756,0.170089 -0.132292,0.226785 0.0567,0.0567 0.09449,0.132292 0.132292,0.226786 0.0378,-0.09449 0.07559,-0.170089 0.132291,-0.226786 -0.0567,-0.0567 -0.09449,-0.132291 -0.132291,-0.226785 z"
         id="path5747-4-1-3-5" />
    </g>
  </g>
</svg>
