<?xml version="1.0" encoding="UTF-8" standalone="no"?>
<!-- Created with Inkscape (http://www.inkscape.org/) -->

<svg
   width="5.3016672mm"
   height="7.4183331mm"
   viewBox="0 0 5.3016672 7.4183331"
   version="1.1"
   id="svg1"
   xmlns="http://www.w3.org/2000/svg"
   xmlns:svg="http://www.w3.org/2000/svg">
  <defs
     id="defs1">
    <linearGradient
       id="swatch55">
      <stop
         style="stop-color:#999999;stop-opacity:1;"
         offset="0"
         id="stop55" />
    </linearGradient>
  </defs>
  <g
     id="layer6"
     transform="translate(-12.959585,-22.749167)">
    <g
       id="g30">
      <path
         style="fill:#f9f9f9;fill-opacity:1;stroke:#000000;stroke-width:0.01;stroke-miterlimit:15;stroke-dasharray:none;stroke-opacity:1"
         d="m 12.964585,23.389167 c 0,-0.423333 0.211667,-0.635 0.636654,-0.635 h 4.051432 c 0.391916,0 0.603581,0.211667 0.603581,0.635 V 29.5275 c 0,0.423334 -0.211668,0.635 -0.635,0.635 h -4.021667 c -0.423333,0 -0.635,-0.211668 -0.635,-0.635 z"
         id="path5732-78" />
      <text
         xml:space="preserve"
         style="font-style:normal;font-variant:normal;font-weight:normal;font-stretch:normal;font-size:0.472113px;line-height:0px;font-family:'Card Characters';-inkscape-font-specification:'Card Characters';fill:#ff0000;fill-opacity:1;stroke:none;stroke-width:0.00334569;stroke-miterlimit:15;stroke-dasharray:none;stroke-dashoffset:0;stroke-opacity:1"
         x="13.496855"
         y="23.208473"
         id="text5747-1-8-6-761"
         transform="scale(0.986662,1.0135183)"><tspan
           style="font-style:normal;font-variant:normal;font-weight:normal;font-stretch:normal;font-size:0.472113px;line-height:0px;font-family:'Card Characters';-inkscape-font-specification:'Card Characters';fill:#ff0000;stroke-width:0.00334569"
           id="tspan5748-2-1-2-65"
           x="13.496855"
           y="23.208473">3</tspan></text>
      <text
         xml:space="preserve"
         style="font-style:normal;font-variant:normal;font-weight:normal;font-stretch:normal;font-size:0.472113px;line-height:0px;font-family:'Card Characters';-inkscape-font-specification:'Card Characters';fill:#ff0000;fill-opacity:1;stroke:none;stroke-width:0.00334566;stroke-miterlimit:15;stroke-dasharray:none;stroke-dashoffset:0;stroke-opacity:1"
         x="-18.146034"
         y="-29.002392"
         id="text5747-1-8-6-7-632"
         transform="scale(-0.986662,-1.0135183)"><tspan
           style="font-style:normal;font-variant:normal;font-weight:normal;font-stretch:normal;font-size:0.472113px;line-height:0px;font-family:'Card Characters';-inkscape-font-specification:'Card Characters';fill:#ff0000;stroke-width:0.00334566"
           id="tspan5748-2-1-2-4-65"
           x="-18.146034"
           y="-29.002392">3</tspan></text>
      <path
         style="fill:#ff0000;fill-opacity:1;stroke:none;stroke-width:0.01;stroke-miterlimit:15;stroke-dasharray:none;stroke-dashoffset:0;stroke-opacity:1"
         d="m 15.610419,23.759584 c -0.105834,0.264584 -0.211667,0.47625 -0.370417,0.635 0.15875,0.15875 0.264583,0.370417 0.370417,0.635 0.105833,-0.264583 0.211666,-0.47625 0.370416,-0.635 -0.15875,-0.15875 -0.264583,-0.370416 -0.370416,-0.635 z"
         id="path5747-5-1" />
      <path
         style="fill:#ff0000;fill-opacity:1;stroke:none;stroke-width:0.01;stroke-miterlimit:15;stroke-dasharray:none;stroke-dashoffset:0;stroke-opacity:1"
         d="m 15.610419,27.887084 c -0.105834,0.264584 -0.211667,0.47625 -0.370417,0.635 0.15875,0.15875 0.264583,0.370417 0.370417,0.635 0.105833,-0.264583 0.211666,-0.47625 0.370416,-0.635 -0.15875,-0.15875 -0.264583,-0.370416 -0.370416,-0.635 z"
         id="path5747-5-6-9" />
      <path
         style="fill:#ff0000;fill-opacity:1;stroke:none;stroke-width:0.01;stroke-miterlimit:15;stroke-dasharray:none;stroke-dashoffset:0;stroke-opacity:1"
         d="m 15.610419,25.823334 c -0.105834,0.264584 -0.211667,0.47625 -0.370417,0.635 0.15875,0.15875 0.264583,0.370417 0.370417,0.635 0.105833,-0.264583 0.211666,-0.47625 0.370416,-0.635 -0.15875,-0.15875 -0.264583,-0.370416 -0.370416,-0.635 z"
         id="path5747-5-6-6-3" />
      <path
         style="fill:#ff0000;fill-opacity:1;stroke:none;stroke-width:0.00357143;stroke-miterlimit:15;stroke-dasharray:none;stroke-dashoffset:0;stroke-opacity:1"
         d="m 13.467293,23.65375 c -0.0378,0.09449 -0.07559,0.17009 -0.132291,0.226786 0.0567,0.0567 0.09449,0.132292 0.132291,0.226786 0.0378,-0.09449 0.0756,-0.17009 0.132292,-0.226786 -0.0567,-0.0567 -0.09449,-0.132291 -0.132292,-0.226786 z"
         id="path5747-5-3-1" />
      <path
         style="fill:#ff0000;fill-opacity:1;stroke:none;stroke-width:0.00357143;stroke-miterlimit:15;stroke-dasharray:none;stroke-dashoffset:0;stroke-opacity:1"
         d="m 17.753544,28.809345 c -0.0378,0.0945 -0.07559,0.17009 -0.132292,0.226786 0.0567,0.0567 0.09449,0.132292 0.132292,0.226786 0.0378,-0.09449 0.07559,-0.170089 0.132291,-0.226786 -0.0567,-0.0567 -0.09449,-0.132291 -0.132291,-0.226786 z"
         id="path5747-5-3-7-6" />
    </g>
  </g>
</svg>
