<?xml version="1.0" encoding="UTF-8" standalone="no"?>
<!-- Created with Inkscape (http://www.inkscape.org/) -->

<svg
   width="5.3016667mm"
   height="7.4183331mm"
   viewBox="0 0 5.3016667 7.4183331"
   version="1.1"
   id="svg1"
   xmlns="http://www.w3.org/2000/svg"
   xmlns:svg="http://www.w3.org/2000/svg">
  <defs
     id="defs1">
    <linearGradient
       id="swatch55">
      <stop
         style="stop-color:#999999;stop-opacity:1;"
         offset="0"
         id="stop55" />
    </linearGradient>
  </defs>
  <g
     id="layer6"
     transform="translate(-7.1387505,-22.749167)">
    <g
       id="g29">
      <path
         style="fill:#f9f9f9;fill-opacity:1;stroke:#000000;stroke-width:0.01;stroke-miterlimit:15;stroke-dasharray:none;stroke-opacity:1"
         d="m 7.1437505,23.389167 c 0,-0.423333 0.2116668,-0.635 0.6366536,-0.635 h 4.0514319 c 0.391916,0 0.603581,0.211667 0.603581,0.635 V 29.5275 c 0,0.423334 -0.211668,0.635 -0.635,0.635 H 7.7787507 c -0.4233335,0 -0.6350002,-0.211668 -0.6350002,-0.635 z"
         id="path5732-49" />
      <text
         xml:space="preserve"
         style="font-style:normal;font-variant:normal;font-weight:normal;font-stretch:normal;font-size:0.500299px;line-height:0px;font-family:'Card Characters';-inkscape-font-specification:'Card Characters';fill:#ff0000;fill-opacity:1;stroke:none;stroke-width:0.00354544;stroke-miterlimit:15;stroke-dasharray:none;stroke-dashoffset:0;stroke-opacity:1"
         x="7.5872288"
         y="23.238901"
         id="text5747-1-8-6-77"
         transform="scale(0.986662,1.0135183)"><tspan
           style="font-style:normal;font-variant:normal;font-weight:normal;font-stretch:normal;font-size:0.500299px;line-height:0px;font-family:'Card Characters';-inkscape-font-specification:'Card Characters';fill:#ff0000;stroke-width:0.00354544"
           id="tspan5748-2-1-2-42"
           x="7.5872288"
           y="23.238901">2</tspan></text>
      <text
         xml:space="preserve"
         style="font-style:normal;font-variant:normal;font-weight:normal;font-stretch:normal;font-size:0.500298px;line-height:0px;font-family:'Card Characters';-inkscape-font-specification:'Card Characters';fill:#ff0000;fill-opacity:1;stroke:none;stroke-width:0.0035454;stroke-miterlimit:15;stroke-dasharray:none;stroke-dashoffset:0;stroke-opacity:1"
         x="-12.256617"
         y="-28.971966"
         id="text5747-1-8-6-7-92"
         transform="scale(-0.986662,-1.0135183)"><tspan
           style="font-style:normal;font-variant:normal;font-weight:normal;font-stretch:normal;font-size:0.500298px;line-height:0px;font-family:'Card Characters';-inkscape-font-specification:'Card Characters';fill:#ff0000;stroke-width:0.0035454"
           id="tspan5748-2-1-2-4-9"
           x="-12.256617"
           y="-28.971966">2</tspan></text>
      <path
         style="fill:#ff0000;fill-opacity:1;stroke:none;stroke-width:0.01;stroke-miterlimit:15;stroke-dasharray:none;stroke-dashoffset:0;stroke-opacity:1"
         d="m 9.7895841,23.759584 c -0.1058334,0.264584 -0.2116668,0.47625 -0.3704168,0.635 0.15875,0.15875 0.2645834,0.370417 0.3704168,0.635 0.1058332,-0.264583 0.2116659,-0.47625 0.3704159,-0.635 -0.15875,-0.15875 -0.2645827,-0.370416 -0.3704159,-0.635 z"
         id="path5747-5-60" />
      <path
         style="fill:#ff0000;fill-opacity:1;stroke:none;stroke-width:0.01;stroke-miterlimit:15;stroke-dasharray:none;stroke-dashoffset:0;stroke-opacity:1"
         d="m 9.7895841,27.887084 c -0.1058334,0.264584 -0.2116668,0.47625 -0.3704168,0.635 0.15875,0.15875 0.2645834,0.370417 0.3704168,0.635 0.1058332,-0.264583 0.2116659,-0.47625 0.3704159,-0.635 -0.15875,-0.15875 -0.2645827,-0.370416 -0.3704159,-0.635 z"
         id="path5747-5-6-4" />
      <path
         style="fill:#ff0000;fill-opacity:1;stroke:none;stroke-width:0.00357143;stroke-miterlimit:15;stroke-dasharray:none;stroke-dashoffset:0;stroke-opacity:1"
         d="m 7.6464589,23.65375 c -0.037797,0.0945 -0.075595,0.17009 -0.1322917,0.226786 0.056697,0.0567 0.094494,0.132292 0.1322917,0.226786 0.037798,-0.09449 0.075595,-0.17009 0.1322917,-0.226786 -0.056696,-0.0567 -0.094494,-0.132291 -0.1322917,-0.226786 z"
         id="path5747-5-3-0" />
      <path
         style="fill:#ff0000;fill-opacity:1;stroke:none;stroke-width:0.00357143;stroke-miterlimit:15;stroke-dasharray:none;stroke-dashoffset:0;stroke-opacity:1"
         d="m 11.932709,28.809345 c -0.0378,0.09449 -0.07559,0.17009 -0.132292,0.226786 0.0567,0.0567 0.09449,0.132292 0.132292,0.226786 0.0378,-0.09449 0.07559,-0.170089 0.132292,-0.226786 -0.0567,-0.0567 -0.09449,-0.132291 -0.132292,-0.226786 z"
         id="path5747-5-3-7-5" />
    </g>
  </g>
</svg>
