<?xml version="1.0" encoding="UTF-8" standalone="no"?>
<!-- Created with Inkscape (http://www.inkscape.org/) -->

<svg
   width="5.3016677mm"
   height="7.4183331mm"
   viewBox="0 0 5.3016677 7.4183331"
   version="1.1"
   id="svg1"
   xmlns="http://www.w3.org/2000/svg"
   xmlns:svg="http://www.w3.org/2000/svg">
  <defs
     id="defs1">
    <linearGradient
       id="swatch55">
      <stop
         style="stop-color:#999999;stop-opacity:1;"
         offset="0"
         id="stop55" />
    </linearGradient>
  </defs>
  <g
     id="layer5"
     transform="translate(-7.1370964,-14.547083)">
    <g
       id="g3"
       transform="translate(-0.00665397,-0.00499961)">
      <path
         style="fill:#f9f9f9;fill-opacity:1;stroke:#000000;stroke-width:0.01;stroke-miterlimit:15;stroke-dasharray:none;stroke-opacity:1"
         d="m 7.1487504,15.192083 c 0,-0.423334 0.211667,-0.635 0.636654,-0.635 h 4.0514326 c 0.391916,0 0.603581,0.211667 0.603581,0.635 v 6.138333 c 0,0.423334 -0.211668,0.635 -0.635,0.635 H 7.7837504 c -0.423333,0 -0.635,-0.211668 -0.635,-0.635 z"
         id="path5732-3" />
      <path
         style="fill:#fc0000;fill-opacity:1;stroke:none;stroke-width:0.01;stroke-miterlimit:15;stroke-dasharray:none;stroke-dashoffset:0;stroke-opacity:1"
         d="m 9.7945844,16.832499 c -0.05292,-0.264583 -0.423334,-0.687916 -0.423334,-0.9525 0,-0.211666 0.06778,-0.318901 0.211667,-0.3175 0.105833,0 0.211667,0.105834 0.211667,0.3175 0,-0.211666 0.105833,-0.3175 0.2116656,-0.3175 0.105834,10e-7 0.211667,0.105834 0.211667,0.3175 0,0.264584 -0.3704166,0.687917 -0.4233326,0.9525 z"
         id="path5744-5-6-0" />
      <path
         style="fill:#fc0000;fill-opacity:1;stroke:none;stroke-width:0.00312499;stroke-miterlimit:15;stroke-dasharray:none;stroke-dashoffset:0;stroke-opacity:1"
         d="m 7.6464581,15.848546 c -0.01654,-0.08268 -0.132291,-0.214973 -0.132291,-0.297655 0,-0.06615 0.02118,-0.09966 0.06615,-0.09922 0.03307,0 0.06615,0.03307 0.06615,0.09922 0,-0.06615 0.03307,-0.09922 0.06615,-0.09922 0.03307,0 0.06615,0.03307 0.06615,0.09922 0,0.08268 -0.115755,0.214973 -0.132291,0.297655 z"
         id="path5744-5-3-8" />
      <path
         style="fill:#fc0000;fill-opacity:1;stroke:none;stroke-width:0.01;stroke-miterlimit:15;stroke-dasharray:none;stroke-dashoffset:0;stroke-opacity:1"
         d="m 9.7945844,19.689999 c -0.05292,0.264583 -0.423334,0.687916 -0.423334,0.9525 0,0.211666 0.06778,0.318901 0.211667,0.3175 0.105833,0 0.211667,-0.105834 0.211667,-0.3175 0,0.211666 0.105833,0.3175 0.2116656,0.3175 0.105834,-1e-6 0.211667,-0.105834 0.211667,-0.3175 0,-0.264584 -0.3704166,-0.687917 -0.4233326,-0.9525 z"
         id="path5744-5-0-0-8" />
      <text
         xml:space="preserve"
         style="font-style:normal;font-variant:normal;font-weight:normal;font-stretch:normal;font-size:0.500068px;line-height:0px;font-family:'Card Characters';-inkscape-font-specification:'Card Characters';fill:#ff0000;fill-opacity:1;stroke:none;stroke-width:0.0035438;stroke-miterlimit:15;stroke-dasharray:none;stroke-dashoffset:0;stroke-opacity:1"
         x="7.5887938"
         y="15.157751"
         id="text5747-7"
         transform="scale(0.98711732,1.0130508)"><tspan
           id="tspan5747-3"
           style="font-style:normal;font-variant:normal;font-weight:normal;font-stretch:normal;font-size:0.500068px;line-height:0px;font-family:'Card Characters';-inkscape-font-specification:'Card Characters';stroke-width:0.0035438"
           x="7.5887938"
           y="15.157751" /><tspan
           style="font-style:normal;font-variant:normal;font-weight:normal;font-stretch:normal;font-size:0.500068px;line-height:0px;font-family:'Card Characters';-inkscape-font-specification:'Card Characters';stroke-width:0.0035438"
           id="tspan5748-6"
           x="7.5887938"
           y="15.157751">2</tspan></text>
      <path
         style="fill:#fc0000;fill-opacity:1;stroke:none;stroke-width:0.00312499;stroke-miterlimit:15;stroke-dasharray:none;stroke-dashoffset:0;stroke-opacity:1"
         d="m 11.932708,20.663953 c -0.01654,0.08268 -0.132291,0.214974 -0.132291,0.297656 0,0.06615 0.02118,0.09966 0.06615,0.09922 0.03307,0 0.06615,-0.03307 0.06615,-0.09922 0,0.06615 0.03307,0.09922 0.06615,0.09922 0.03307,0 0.06615,-0.03307 0.06615,-0.09922 0,-0.08268 -0.115755,-0.214974 -0.132291,-0.297656 z"
         id="path5744-5-3-7-0" />
      <text
         xml:space="preserve"
         style="font-style:normal;font-variant:normal;font-weight:normal;font-stretch:normal;font-size:0.500298px;line-height:0px;font-family:'Card Characters';-inkscape-font-specification:'Card Characters';fill:#ff0000;fill-opacity:1;stroke:none;stroke-width:0.00354542;stroke-miterlimit:15;stroke-dasharray:none;stroke-dashoffset:0;stroke-opacity:1"
         x="-12.261683"
         y="-20.884214"
         id="text5747-1-9"
         transform="scale(-0.986662,-1.0135183)"><tspan
           style="font-style:normal;font-variant:normal;font-weight:normal;font-stretch:normal;font-size:0.500298px;line-height:0px;font-family:'Card Characters';-inkscape-font-specification:'Card Characters';stroke-width:0.00354542"
           id="tspan5748-2-0"
           x="-12.261683"
           y="-20.884214">2</tspan></text>
    </g>
  </g>
</svg>
