<?xml version="1.0" encoding="UTF-8" standalone="no"?>
<!-- Created with Inkscape (http://www.inkscape.org/) -->

<svg
   width="5.3016672mm"
   height="7.4183331mm"
   viewBox="0 0 5.3016672 7.4183331"
   version="1.1"
   id="svg1"
   xmlns="http://www.w3.org/2000/svg"
   xmlns:svg="http://www.w3.org/2000/svg">
  <defs
     id="defs1">
    <linearGradient
       id="swatch55">
      <stop
         style="stop-color:#999999;stop-opacity:1;"
         offset="0"
         id="stop55" />
    </linearGradient>
  </defs>
  <g
     id="layer5"
     transform="translate(-42.063752,-14.547083)">
    <g
       id="g8">
      <path
         style="fill:#f9f9f9;fill-opacity:1;stroke:#000000;stroke-width:0.01;stroke-miterlimit:15;stroke-dasharray:none;stroke-opacity:1"
         d="m 42.068752,15.187083 c 0,-0.423333 0.211667,-0.635 0.636654,-0.635 h 4.051432 c 0.391916,0 0.603581,0.211667 0.603581,0.635 v 6.138333 c 0,0.423334 -0.211668,0.635 -0.635,0.635 h -4.021667 c -0.423333,0 -0.635,-0.211668 -0.635,-0.635 z"
         id="path5732-1" />
      <path
         style="fill:#fc0000;fill-opacity:1;stroke:none;stroke-width:0.01;stroke-miterlimit:15;stroke-dasharray:none;stroke-dashoffset:0;stroke-opacity:1"
         d="m 43.656252,16.8275 c -0.05292,-0.264583 -0.423333,-0.687916 -0.423333,-0.9525 0,-0.211666 0.06778,-0.318901 0.211666,-0.3175 0.105834,0 0.211667,0.105834 0.211667,0.3175 0,-0.211666 0.105833,-0.3175 0.211667,-0.3175 0.105833,1e-6 0.211666,0.105834 0.211666,0.3175 0,0.264584 -0.370416,0.687917 -0.423333,0.9525 z"
         id="path5744-5-6-07" />
      <path
         style="fill:#fc0000;fill-opacity:1;stroke:none;stroke-width:0.01;stroke-miterlimit:15;stroke-dasharray:none;stroke-dashoffset:0;stroke-opacity:1"
         d="m 43.656251,18.89125 c -0.05292,-0.264583 -0.423333,-0.687916 -0.423333,-0.9525 0,-0.211666 0.06778,-0.318901 0.211666,-0.3175 0.105834,0 0.211667,0.105834 0.211667,0.3175 0,-0.211666 0.105833,-0.3175 0.211667,-0.3175 0.105833,1e-6 0.211666,0.105834 0.211666,0.3175 0,0.264584 -0.370416,0.687917 -0.423333,0.9525 z"
         id="path5744-5-6-44-6" />
      <path
         style="fill:#fc0000;fill-opacity:1;stroke:none;stroke-width:0.01;stroke-miterlimit:15;stroke-dasharray:none;stroke-dashoffset:0;stroke-opacity:1"
         d="m 44.714585,17.832916 c -0.05292,-0.264583 -0.423333,-0.687916 -0.423333,-0.9525 0,-0.211666 0.06778,-0.318901 0.211667,-0.3175 0.105833,0 0.211666,0.105834 0.211666,0.3175 0,-0.211666 0.105834,-0.3175 0.211667,-0.3175 0.105834,10e-7 0.211667,0.105834 0.211667,0.3175 0,0.264584 -0.370417,0.687917 -0.423334,0.9525 z"
         id="path5744-5-6-44-8-0" />
      <path
         style="fill:#fc0000;fill-opacity:1;stroke:none;stroke-width:0.01;stroke-miterlimit:15;stroke-dasharray:none;stroke-dashoffset:0;stroke-opacity:1"
         d="m 44.714585,18.997069 c -0.05292,0.264583 -0.423333,0.687916 -0.423333,0.9525 0,0.211666 0.06778,0.318901 0.211667,0.3175 0.105833,0 0.211666,-0.105834 0.211666,-0.3175 0,0.211666 0.105834,0.3175 0.211667,0.3175 0.105834,-1e-6 0.211667,-0.105834 0.211667,-0.3175 0,-0.264584 -0.370417,-0.687917 -0.423334,-0.9525 z"
         id="path5744-5-6-44-8-4-4" />
      <path
         style="fill:#fc0000;fill-opacity:1;stroke:none;stroke-width:0.01;stroke-miterlimit:15;stroke-dasharray:none;stroke-dashoffset:0;stroke-opacity:1"
         d="m 45.772918,18.89125 c -0.05292,-0.264583 -0.423333,-0.687916 -0.423333,-0.9525 0,-0.211666 0.06778,-0.318901 0.211666,-0.3175 0.105834,0 0.211667,0.105834 0.211667,0.3175 0,-0.211666 0.105833,-0.3175 0.211667,-0.3175 0.105833,1e-6 0.211666,0.105834 0.211666,0.3175 0,0.264584 -0.370416,0.687917 -0.423333,0.9525 z"
         id="path5744-5-6-44-3-2" />
      <path
         style="fill:#fc0000;fill-opacity:1;stroke:none;stroke-width:0.01;stroke-miterlimit:15;stroke-dasharray:none;stroke-dashoffset:0;stroke-opacity:1"
         d="m 45.772919,16.8275 c -0.05292,-0.264583 -0.423333,-0.687916 -0.423333,-0.9525 0,-0.211666 0.06778,-0.318901 0.211666,-0.3175 0.105834,0 0.211667,0.105834 0.211667,0.3175 0,-0.211666 0.105833,-0.3175 0.211667,-0.3175 0.105833,1e-6 0.211666,0.105834 0.211666,0.3175 0,0.264584 -0.370416,0.687917 -0.423333,0.9525 z"
         id="path5744-5-6-2-90" />
      <path
         style="fill:#fc0000;fill-opacity:1;stroke:none;stroke-width:0.00312499;stroke-miterlimit:15;stroke-dasharray:none;stroke-dashoffset:0;stroke-opacity:1"
         d="m 42.57146,15.848545 c -0.01654,-0.08268 -0.132291,-0.214973 -0.132291,-0.297655 0,-0.06615 0.02118,-0.09966 0.06615,-0.09922 0.03307,0 0.06615,0.03307 0.06615,0.09922 0,-0.06615 0.03307,-0.09922 0.06615,-0.09922 0.03307,0 0.06615,0.03307 0.06615,0.09922 0,0.08268 -0.115755,0.214973 -0.132292,0.297655 z"
         id="path5744-5-3-60" />
      <path
         style="fill:#fc0000;fill-opacity:1;stroke:none;stroke-width:0.01;stroke-miterlimit:15;stroke-dasharray:none;stroke-dashoffset:0;stroke-opacity:1"
         d="m 43.656252,19.685 c -0.05292,0.264583 -0.423333,0.687916 -0.423333,0.9525 0,0.211666 0.06778,0.318901 0.211666,0.3175 0.105834,0 0.211667,-0.105834 0.211667,-0.3175 0,0.211666 0.105833,0.3175 0.211667,0.3175 0.105833,-10e-7 0.211666,-0.105834 0.211666,-0.3175 0,-0.264584 -0.370416,-0.687917 -0.423333,-0.9525 z"
         id="path5744-5-0-0-3" />
      <path
         style="fill:#fc0000;fill-opacity:1;stroke:none;stroke-width:0.01;stroke-miterlimit:15;stroke-dasharray:none;stroke-dashoffset:0;stroke-opacity:1"
         d="m 45.772919,19.685 c -0.05292,0.264583 -0.423333,0.687916 -0.423333,0.9525 0,0.211666 0.06778,0.318901 0.211666,0.3175 0.105834,0 0.211667,-0.105834 0.211667,-0.3175 0,0.211666 0.105833,0.3175 0.211667,0.3175 0.105833,-10e-7 0.211666,-0.105834 0.211666,-0.3175 0,-0.264584 -0.370416,-0.687917 -0.423333,-0.9525 z"
         id="path5744-5-0-0-97-0" />
      <text
         xml:space="preserve"
         style="font-style:normal;font-variant:normal;font-weight:normal;font-stretch:normal;font-size:0.485573px;line-height:0px;font-family:'Card Characters';-inkscape-font-specification:'Card Characters';fill:#ff0000;fill-opacity:1;stroke:none;stroke-width:0.00344108;stroke-miterlimit:15;stroke-dasharray:none;stroke-dashoffset:0;stroke-opacity:1"
         x="42.969242"
         y="15.136683"
         id="text5747-64"
         transform="scale(0.98711732,1.0130508)"><tspan
           id="tspan5747-6"
           style="font-style:normal;font-variant:normal;font-weight:normal;font-stretch:normal;font-size:0.485573px;line-height:0px;font-family:'Card Characters';-inkscape-font-specification:'Card Characters';stroke-width:0.00344108"
           x="42.969242"
           y="15.136683" /><tspan
           style="font-style:normal;font-variant:normal;font-weight:normal;font-stretch:normal;font-size:0.485573px;line-height:0px;font-family:'Card Characters';-inkscape-font-specification:'Card Characters';stroke-width:0.00344108"
           id="tspan5748-7"
           x="42.969242"
           y="15.136683">8</tspan></text>
      <path
         style="fill:#fc0000;fill-opacity:1;stroke:none;stroke-width:0.00312499;stroke-miterlimit:15;stroke-dasharray:none;stroke-dashoffset:0;stroke-opacity:1"
         d="m 46.859173,20.663954 c -0.01654,0.08268 -0.132291,0.214973 -0.132291,0.297655 0,0.06615 0.02118,0.09966 0.06615,0.09922 0.03307,0 0.06615,-0.03307 0.06615,-0.09922 0,0.06615 0.03307,0.09922 0.06615,0.09922 0.03307,0 0.06615,-0.03307 0.06615,-0.09922 0,-0.08268 -0.115755,-0.214973 -0.132291,-0.297655 z"
         id="path5744-5-3-7-8" />
      <text
         xml:space="preserve"
         style="font-style:normal;font-variant:normal;font-weight:normal;font-stretch:normal;font-size:0.485797px;line-height:0px;font-family:'Card Characters';-inkscape-font-specification:'Card Characters';fill:#ff0000;fill-opacity:1;stroke:none;stroke-width:0.00344265;stroke-miterlimit:15;stroke-dasharray:none;stroke-dashoffset:0;stroke-opacity:1"
         x="-47.649033"
         y="-20.89542"
         id="text5747-1-73"
         transform="scale(-0.986662,-1.0135183)"><tspan
           style="font-style:normal;font-variant:normal;font-weight:normal;font-stretch:normal;font-size:0.485797px;line-height:0px;font-family:'Card Characters';-inkscape-font-specification:'Card Characters';stroke-width:0.00344265"
           id="tspan5748-2-81"
           x="-47.649033"
           y="-20.89542">8</tspan></text>
    </g>
  </g>
</svg>
