<?xml version="1.0" encoding="UTF-8" standalone="no"?>
<!-- Created with Inkscape (http://www.inkscape.org/) -->

<svg
   width="5.3016672mm"
   height="7.4183331mm"
   viewBox="0 0 5.3016672 7.4183331"
   version="1.1"
   id="svg1"
   xmlns="http://www.w3.org/2000/svg"
   xmlns:svg="http://www.w3.org/2000/svg">
  <defs
     id="defs1">
    <linearGradient
       id="swatch55">
      <stop
         style="stop-color:#999999;stop-opacity:1;"
         offset="0"
         id="stop55" />
    </linearGradient>
  </defs>
  <g
     id="layer5"
     transform="translate(-1.3179167,-14.547083)">
    <g
       id="g38">
      <path
         style="fill:#f9f9f9;fill-opacity:1;stroke:#000000;stroke-width:0.01;stroke-miterlimit:15;stroke-dasharray:none;stroke-opacity:1"
         d="m 1.3229167,15.187083 c 0,-0.423333 0.2116668,-0.635 0.6366536,-0.635 h 4.0514322 c 0.391916,0 0.6035812,0.211667 0.6035812,0.635 v 6.138333 c 0,0.423334 -0.2116679,0.635 -0.635,0.635 H 1.9579169 c -0.4233335,0 -0.6350002,-0.211668 -0.6350002,-0.635 z"
         id="path5732-508" />
      <path
         style="fill:#fc0000;fill-opacity:1;stroke:none;stroke-width:0.003125;stroke-miterlimit:15;stroke-dasharray:none;stroke-dashoffset:0;stroke-opacity:1"
         d="m 1.8256251,15.848532 c -0.016537,-0.08268 -0.1322916,-0.214974 -0.1322916,-0.297656 0,-0.06615 0.021182,-0.09966 0.066146,-0.09922 0.033073,0 0.066146,0.03307 0.066146,0.09922 0,-0.06615 0.033073,-0.09922 0.066146,-0.09922 0.033073,0 0.066146,0.03307 0.066146,0.09922 0,0.08268 -0.1157552,0.214974 -0.1322924,0.297656 z"
         id="path5744-8-6" />
      <path
         style="fill:#fc0000;fill-opacity:1;stroke:none;stroke-width:0.003125;stroke-miterlimit:15;stroke-dasharray:none;stroke-dashoffset:0;stroke-opacity:1"
         d="m 6.1118746,20.663954 c -0.016536,0.08268 -0.1322916,0.214973 -0.1322916,0.297656 0,0.06615 0.021182,0.09966 0.066146,0.09922 0.033073,0 0.066146,-0.03307 0.066146,-0.09922 0,0.06615 0.033073,0.09922 0.066146,0.09922 0.033073,-1e-6 0.066146,-0.03307 0.066146,-0.09922 0,-0.08268 -0.1157552,-0.214974 -0.1322924,-0.297656 z"
         id="path5744-8-7-6" />
      <text
         xml:space="preserve"
         style="font-style:normal;font-variant:normal;font-weight:normal;font-stretch:normal;font-size:0.489343px;line-height:0px;font-family:'Card Characters';-inkscape-font-specification:'Card Characters';fill:#ff0000;fill-opacity:1;stroke:none;stroke-width:0.00346779;stroke-miterlimit:15;stroke-dasharray:none;stroke-dashoffset:0;stroke-opacity:1"
         x="1.691268"
         y="15.129129"
         id="text5747-1-8-6-58"
         transform="scale(0.986662,1.0135183)"><tspan
           style="font-style:normal;font-variant:normal;font-weight:normal;font-stretch:normal;font-size:0.489343px;line-height:0px;font-family:'Card Characters';-inkscape-font-specification:'Card Characters';fill:#ff0000;stroke-width:0.00346779"
           id="tspan5748-2-1-2-95"
           x="1.691268"
           y="15.129129">A</tspan></text>
      <text
         xml:space="preserve"
         style="font-style:normal;font-variant:normal;font-weight:normal;font-stretch:normal;font-size:0.489343px;line-height:0px;font-family:'Card Characters';-inkscape-font-specification:'Card Characters';fill:#ff0000;fill-opacity:1;stroke:none;stroke-width:0.00346775;stroke-miterlimit:15;stroke-dasharray:none;stroke-dashoffset:0;stroke-opacity:1"
         x="-6.3535342"
         y="-20.896368"
         id="text5747-1-8-6-7-01"
         transform="scale(-0.986662,-1.0135183)"><tspan
           style="font-style:normal;font-variant:normal;font-weight:normal;font-stretch:normal;font-size:0.489343px;line-height:0px;font-family:'Card Characters';-inkscape-font-specification:'Card Characters';fill:#ff0000;stroke-width:0.00346775"
           id="tspan5748-2-1-2-4-0"
           x="-6.3535342"
           y="-20.896368">A</tspan></text>
      <path
         style="fill:#fc0000;fill-opacity:1;stroke:none;stroke-width:0.02;stroke-miterlimit:15;stroke-dasharray:none;stroke-dashoffset:0;stroke-opacity:1"
         d="m 3.9687502,19.526263 c -0.105834,-0.529166 -0.8466666,-1.375832 -0.8466666,-1.905 0,-0.423332 0.135562,-0.637802 0.4233334,-0.635 0.2116666,0 0.4233332,0.211668 0.4233332,0.635 0,-0.423332 0.2116668,-0.635 0.4233334,-0.635 0.2116668,2e-6 0.4233334,0.211668 0.4233334,0.635 0,0.529168 -0.7408334,1.375834 -0.8466668,1.905 z"
         id="path5744-1-2" />
      <path
         style="fill:#800000;fill-opacity:1;stroke:none;stroke-width:0.01;stroke-miterlimit:15"
         d="m 4.7095836,17.885833 c -0.15875,0.47625 -0.635,1.11125 -0.7408332,1.481667 -2e-7,-0.529167 0.052916,-0.740833 0.1058332,-0.899583 0.052917,-0.15875 0.2179468,-0.44516 0.4233328,-0.582084 0.1587505,-0.105833 0.2645834,-0.15875 0.2116672,0 z"
         id="path37-7" />
      <path
         style="fill:#ffffff;fill-opacity:1;stroke:none;stroke-width:0.01;stroke-miterlimit:15"
         d="m 3.5454169,17.039166 c -0.2116667,0 -0.3704167,0.15875 -0.3704167,0.582084 0,0.211666 0.15875,0.529166 0.3175,0.79375 -0.2116667,-0.582084 -0.1058333,-1.005417 0,-1.164167 0.1058333,-0.15875 0.105834,-0.211667 0.052917,-0.211667 z"
         id="path38-2" />
      <path
         style="fill:#ffffff;fill-opacity:1;stroke:none;stroke-width:0.01;stroke-miterlimit:15"
         d="m 4.3920836,17.039166 c -0.2116667,0 -0.3704167,0.211667 -0.3704167,0.687917 0.1058333,-0.353674 0.2116667,-0.423333 0.3175,-0.529167 0.1058333,-0.105833 0.105834,-0.15875 0.052917,-0.15875 z"
         id="path38-4-6" />
    </g>
  </g>
</svg>
