<?xml version="1.0" encoding="UTF-8" standalone="no"?>
<!-- Created with Inkscape (http://www.inkscape.org/) -->

<svg
   width="5.3016672mm"
   height="7.4183331mm"
   viewBox="0 0 5.3016672 7.4183331"
   version="1.1"
   id="svg1"
   xmlns="http://www.w3.org/2000/svg"
   xmlns:svg="http://www.w3.org/2000/svg">
  <defs
     id="defs1">
    <linearGradient
       id="swatch55">
      <stop
         style="stop-color:#999999;stop-opacity:1;"
         offset="0"
         id="stop55" />
    </linearGradient>
  </defs>
  <g
     id="layer5"
     transform="translate(-53.70542,-14.547083)">
    <g
       id="g10">
      <path
         style="fill:#f9f9f9;fill-opacity:1;stroke:#000000;stroke-width:0.01;stroke-miterlimit:15;stroke-dasharray:none;stroke-opacity:1"
         d="m 53.71042,15.187083 c 0,-0.423333 0.211667,-0.635 0.636654,-0.635 h 4.051432 c 0.391916,0 0.603581,0.211667 0.603581,0.635 v 6.138333 c 0,0.423334 -0.211668,0.635 -0.635,0.635 H 54.34542 c -0.423333,0 -0.635,-0.211668 -0.635,-0.635 z"
         id="path5732-48" />
      <path
         style="fill:#fc0000;fill-opacity:1;stroke:none;stroke-width:0.01;stroke-miterlimit:15;stroke-dasharray:none;stroke-dashoffset:0;stroke-opacity:1"
         d="M 55.29792,16.8275 C 55.245,16.562917 54.874587,16.139584 54.874587,15.875 c 0,-0.211666 0.06778,-0.318901 0.211666,-0.3175 0.105834,0 0.211667,0.105834 0.211667,0.3175 0,-0.211666 0.105833,-0.3175 0.211667,-0.3175 0.105833,1e-6 0.211666,0.105834 0.211666,0.3175 0,0.264584 -0.370416,0.687917 -0.423333,0.9525 z"
         id="path5744-5-6-31" />
      <path
         style="fill:#fc0000;fill-opacity:1;stroke:none;stroke-width:0.01;stroke-miterlimit:15;stroke-dasharray:none;stroke-dashoffset:0;stroke-opacity:1"
         d="m 55.29792,18.203333 c -0.05292,-0.264583 -0.423333,-0.687916 -0.423333,-0.9525 0,-0.211666 0.06778,-0.318901 0.211666,-0.3175 0.105834,0 0.211667,0.105834 0.211667,0.3175 0,-0.211666 0.105833,-0.3175 0.211667,-0.3175 0.105833,10e-7 0.211666,0.105834 0.211666,0.3175 0,0.264584 -0.370416,0.687917 -0.423333,0.9525 z"
         id="path5744-5-6-44-40" />
      <path
         style="fill:#fc0000;fill-opacity:1;stroke:none;stroke-width:0.01;stroke-miterlimit:15;stroke-dasharray:none;stroke-dashoffset:0;stroke-opacity:1"
         d="m 56.356253,17.515416 c -0.05292,-0.264583 -0.423333,-0.687916 -0.423333,-0.9525 0,-0.211666 0.06778,-0.318901 0.211667,-0.3175 0.105833,0 0.211666,0.105834 0.211666,0.3175 0,-0.211666 0.105834,-0.3175 0.211667,-0.3175 0.105834,1e-6 0.211667,0.105834 0.211667,0.3175 0,0.264584 -0.370417,0.687917 -0.423334,0.9525 z"
         id="path5744-5-6-44-8-1" />
      <path
         style="fill:#fc0000;fill-opacity:1;stroke:none;stroke-width:0.01;stroke-miterlimit:15;stroke-dasharray:none;stroke-dashoffset:0;stroke-opacity:1"
         d="m 56.356253,18.997069 c -0.05292,0.264583 -0.423333,0.687916 -0.423333,0.9525 0,0.211666 0.06778,0.318901 0.211667,0.3175 0.105833,0 0.211666,-0.105834 0.211666,-0.3175 0,0.211666 0.105834,0.3175 0.211667,0.3175 0.105834,-1e-6 0.211667,-0.105834 0.211667,-0.3175 0,-0.264584 -0.370417,-0.687917 -0.423334,-0.9525 z"
         id="path5744-5-6-44-8-70-5" />
      <path
         style="fill:#fc0000;fill-opacity:1;stroke:none;stroke-width:0.01;stroke-miterlimit:15;stroke-dasharray:none;stroke-dashoffset:0;stroke-opacity:1"
         d="m 57.414587,18.309153 c -0.05292,0.264583 -0.423333,0.687916 -0.423333,0.9525 0,0.211666 0.06778,0.318901 0.211666,0.3175 0.105834,0 0.211667,-0.105834 0.211667,-0.3175 0,0.211666 0.105833,0.3175 0.211667,0.3175 0.105833,-1e-6 0.211666,-0.105834 0.211666,-0.3175 0,-0.264584 -0.370416,-0.687917 -0.423333,-0.9525 z"
         id="path5744-5-6-44-8-43-5" />
      <path
         style="fill:#fc0000;fill-opacity:1;stroke:none;stroke-width:0.01;stroke-miterlimit:15;stroke-dasharray:none;stroke-dashoffset:0;stroke-opacity:1"
         d="m 55.29792,18.309166 c -0.05292,0.264583 -0.423333,0.687916 -0.423333,0.9525 0,0.211666 0.06778,0.318901 0.211666,0.3175 0.105834,0 0.211667,-0.105834 0.211667,-0.3175 0,0.211666 0.105833,0.3175 0.211667,0.3175 0.105833,-1e-6 0.211666,-0.105834 0.211666,-0.3175 0,-0.264584 -0.370416,-0.687917 -0.423333,-0.9525 z"
         id="path5744-5-6-44-8-4-3" />
      <path
         style="fill:#fc0000;fill-opacity:1;stroke:none;stroke-width:0.01;stroke-miterlimit:15;stroke-dasharray:none;stroke-dashoffset:0;stroke-opacity:1"
         d="m 57.414587,18.203333 c -0.05292,-0.264583 -0.423333,-0.687916 -0.423333,-0.9525 0,-0.211666 0.06778,-0.318901 0.211666,-0.3175 0.105834,0 0.211667,0.105834 0.211667,0.3175 0,-0.211666 0.105833,-0.3175 0.211667,-0.3175 0.105833,10e-7 0.211666,0.105834 0.211666,0.3175 0,0.264584 -0.370416,0.687917 -0.423333,0.9525 z"
         id="path5744-5-6-44-3-8" />
      <path
         style="fill:#fc0000;fill-opacity:1;stroke:none;stroke-width:0.01;stroke-miterlimit:15;stroke-dasharray:none;stroke-dashoffset:0;stroke-opacity:1"
         d="m 57.414587,16.8275 c -0.05292,-0.264583 -0.423333,-0.687916 -0.423333,-0.9525 0,-0.211666 0.06778,-0.318901 0.211666,-0.3175 0.105834,0 0.211667,0.105834 0.211667,0.3175 0,-0.211666 0.105833,-0.3175 0.211667,-0.3175 0.105833,1e-6 0.211666,0.105834 0.211666,0.3175 0,0.264584 -0.370416,0.687917 -0.423333,0.9525 z"
         id="path5744-5-6-2-7" />
      <path
         style="fill:#fc0000;fill-opacity:1;stroke:none;stroke-width:0.00312499;stroke-miterlimit:15;stroke-dasharray:none;stroke-dashoffset:0;stroke-opacity:1"
         d="m 54.213128,15.848545 c -0.01654,-0.08268 -0.132291,-0.214973 -0.132291,-0.297655 0,-0.06615 0.02118,-0.09966 0.06615,-0.09922 0.03307,0 0.06615,0.03307 0.06615,0.09922 0,-0.06615 0.03307,-0.09922 0.06615,-0.09922 0.03307,0 0.06615,0.03307 0.06615,0.09922 0,0.08268 -0.115755,0.214973 -0.132292,0.297655 z"
         id="path5744-5-3-54" />
      <path
         style="fill:#fc0000;fill-opacity:1;stroke:none;stroke-width:0.01;stroke-miterlimit:15;stroke-dasharray:none;stroke-dashoffset:0;stroke-opacity:1"
         d="m 55.29792,19.685 c -0.05292,0.264583 -0.423333,0.687916 -0.423333,0.9525 0,0.211666 0.06778,0.318901 0.211666,0.3175 0.105834,0 0.211667,-0.105834 0.211667,-0.3175 0,0.211666 0.105833,0.3175 0.211667,0.3175 0.105833,-10e-7 0.211666,-0.105834 0.211666,-0.3175 0,-0.264584 -0.370416,-0.687917 -0.423333,-0.9525 z"
         id="path5744-5-0-0-2" />
      <path
         style="fill:#fc0000;fill-opacity:1;stroke:none;stroke-width:0.01;stroke-miterlimit:15;stroke-dasharray:none;stroke-dashoffset:0;stroke-opacity:1"
         d="m 57.414587,19.685 c -0.05292,0.264583 -0.423333,0.687916 -0.423333,0.9525 0,0.211666 0.06778,0.318901 0.211666,0.3175 0.105834,0 0.211667,-0.105834 0.211667,-0.3175 0,0.211666 0.105833,0.3175 0.211667,0.3175 0.105833,-10e-7 0.211666,-0.105834 0.211666,-0.3175 0,-0.264584 -0.370416,-0.687917 -0.423333,-0.9525 z"
         id="path5744-5-0-0-97-08" />
      <text
         xml:space="preserve"
         style="font-style:normal;font-variant:normal;font-weight:normal;font-stretch:normal;font-size:0.503712px;line-height:0px;font-family:'Card Characters Narrow Figures';-inkscape-font-specification:'Card Characters Narrow Figures, Normal';font-variant-ligatures:normal;font-variant-caps:normal;font-variant-numeric:normal;font-variant-east-asian:normal;fill:#ff0000;fill-opacity:1;stroke:none;stroke-width:0.00356963;stroke-miterlimit:15;stroke-dasharray:none;stroke-dashoffset:0;stroke-opacity:1"
         x="52.381573"
         y="15.819978"
         id="text5747-645"
         transform="scale(1.0316194,0.96934974)"><tspan
           id="tspan5747-25"
           style="font-style:normal;font-variant:normal;font-weight:normal;font-stretch:normal;font-size:0.503712px;line-height:0px;font-family:'Card Characters Narrow Figures';-inkscape-font-specification:'Card Characters Narrow Figures, Normal';font-variant-ligatures:normal;font-variant-caps:normal;font-variant-numeric:normal;font-variant-east-asian:normal;stroke-width:0.00356963"
           x="52.381573"
           y="15.819978" /><tspan
           style="font-style:normal;font-variant:normal;font-weight:normal;font-stretch:normal;font-size:0.503712px;line-height:0px;font-family:'Card Characters Narrow Figures';-inkscape-font-specification:'Card Characters Narrow Figures, Normal';font-variant-ligatures:normal;font-variant-caps:normal;font-variant-numeric:normal;font-variant-east-asian:normal;stroke-width:0.00356963"
           id="tspan5748-53"
           x="52.381573"
           y="15.819978">10</tspan></text>
      <path
         style="fill:#fc0000;fill-opacity:1;stroke:none;stroke-width:0.00312499;stroke-miterlimit:15;stroke-dasharray:none;stroke-dashoffset:0;stroke-opacity:1"
         d="m 58.500841,20.663954 c -0.01654,0.08268 -0.132291,0.214973 -0.132291,0.297655 0,0.06615 0.02118,0.09966 0.06615,0.09922 0.03307,0 0.06615,-0.03307 0.06615,-0.09922 0,0.06615 0.03307,0.09922 0.06615,0.09922 0.03307,0 0.06615,-0.03307 0.06615,-0.09922 0,-0.08268 -0.115755,-0.214973 -0.132291,-0.297655 z"
         id="path5744-5-3-7-5" />
      <text
         xml:space="preserve"
         style="font-style:normal;font-variant:normal;font-weight:normal;font-stretch:normal;font-size:0.507661px;line-height:0px;font-family:'Card Characters Narrow Figures';-inkscape-font-specification:'Card Characters Narrow Figures, Normal';font-variant-ligatures:normal;font-variant-caps:normal;font-variant-numeric:normal;font-variant-east-asian:normal;fill:#ff0000;fill-opacity:1;stroke:none;stroke-width:0.00359759;stroke-miterlimit:15;stroke-dasharray:none;stroke-dashoffset:0;stroke-opacity:1"
         x="-57.325302"
         y="-21.670465"
         id="text5747-1-1"
         transform="scale(-1.0235961,-0.97694784)"><tspan
           style="font-style:normal;font-variant:normal;font-weight:normal;font-stretch:normal;font-size:0.507661px;line-height:0px;font-family:'Card Characters Narrow Figures';-inkscape-font-specification:'Card Characters Narrow Figures, Normal';font-variant-ligatures:normal;font-variant-caps:normal;font-variant-numeric:normal;font-variant-east-asian:normal;stroke-width:0.00359759"
           id="tspan5748-2-11"
           x="-57.325302"
           y="-21.670465">10</tspan></text>
    </g>
  </g>
</svg>
