<?xml version="1.0" encoding="UTF-8" standalone="no"?>
<!-- Created with Inkscape (http://www.inkscape.org/) -->

<svg
   width="5.3016672mm"
   height="7.4183331mm"
   viewBox="0 0 5.3016672 7.4183331"
   version="1.1"
   id="svg1"
   xmlns="http://www.w3.org/2000/svg"
   xmlns:svg="http://www.w3.org/2000/svg">
  <defs
     id="defs1">
    <linearGradient
       id="swatch55">
      <stop
         style="stop-color:#999999;stop-opacity:1;"
         offset="0"
         id="stop55" />
    </linearGradient>
  </defs>
  <g
     id="layer5"
     transform="translate(-18.780418,-14.547083)">
    <g
       id="g4">
      <path
         style="fill:#f9f9f9;fill-opacity:1;stroke:#000000;stroke-width:0.01;stroke-miterlimit:15;stroke-dasharray:none;stroke-opacity:1"
         d="m 18.785418,15.187083 c 0,-0.423333 0.211667,-0.635 0.636654,-0.635 h 4.051432 c 0.391916,0 0.603581,0.211667 0.603581,0.635 v 6.138333 c 0,0.423334 -0.211668,0.635 -0.635,0.635 h -4.021667 c -0.423333,0 -0.635,-0.211668 -0.635,-0.635 z"
         id="path5732-5" />
      <path
         style="fill:#fc0000;fill-opacity:1;stroke:none;stroke-width:0.01;stroke-miterlimit:15;stroke-dasharray:none;stroke-dashoffset:0;stroke-opacity:1"
         d="m 20.372918,16.8275 c -0.05292,-0.264583 -0.423333,-0.687916 -0.423333,-0.9525 0,-0.211666 0.06778,-0.318901 0.211666,-0.3175 0.105834,0 0.211667,0.105834 0.211667,0.3175 0,-0.211666 0.105833,-0.3175 0.211667,-0.3175 0.105833,1e-6 0.211666,0.105834 0.211666,0.3175 0,0.264584 -0.370416,0.687917 -0.423333,0.9525 z"
         id="path5744-5-6-4" />
      <path
         style="fill:#fc0000;fill-opacity:1;stroke:none;stroke-width:0.01;stroke-miterlimit:15;stroke-dasharray:none;stroke-dashoffset:0;stroke-opacity:1"
         d="m 22.489585,16.8275 c -0.05292,-0.264583 -0.423333,-0.687916 -0.423333,-0.9525 0,-0.211666 0.06778,-0.318901 0.211666,-0.3175 0.105834,0 0.211667,0.105834 0.211667,0.3175 0,-0.211666 0.105833,-0.3175 0.211667,-0.3175 0.105833,1e-6 0.211666,0.105834 0.211666,0.3175 0,0.264584 -0.370416,0.687917 -0.423333,0.9525 z"
         id="path5744-5-6-2-9" />
      <path
         style="fill:#fc0000;fill-opacity:1;stroke:none;stroke-width:0.00312499;stroke-miterlimit:15;stroke-dasharray:none;stroke-dashoffset:0;stroke-opacity:1"
         d="m 19.288126,15.848545 c -0.01654,-0.08268 -0.132291,-0.214973 -0.132291,-0.297655 0,-0.06615 0.02118,-0.09966 0.06615,-0.09922 0.03307,0 0.06615,0.03307 0.06615,0.09922 0,-0.06615 0.03307,-0.09922 0.06615,-0.09922 0.03307,0 0.06615,0.03307 0.06615,0.09922 0,0.08268 -0.115755,0.214973 -0.132292,0.297655 z"
         id="path5744-5-3-9" />
      <path
         style="fill:#fc0000;fill-opacity:1;stroke:none;stroke-width:0.01;stroke-miterlimit:15;stroke-dasharray:none;stroke-dashoffset:0;stroke-opacity:1"
         d="m 20.372918,19.685 c -0.05292,0.264583 -0.423333,0.687916 -0.423333,0.9525 0,0.211666 0.06778,0.318901 0.211666,0.3175 0.105834,0 0.211667,-0.105834 0.211667,-0.3175 0,0.211666 0.105833,0.3175 0.211667,0.3175 0.105833,-10e-7 0.211666,-0.105834 0.211666,-0.3175 0,-0.264584 -0.370416,-0.687917 -0.423333,-0.9525 z"
         id="path5744-5-0-0-5" />
      <path
         style="fill:#fc0000;fill-opacity:1;stroke:none;stroke-width:0.01;stroke-miterlimit:15;stroke-dasharray:none;stroke-dashoffset:0;stroke-opacity:1"
         d="m 22.489585,19.685 c -0.05292,0.264583 -0.423333,0.687916 -0.423333,0.9525 0,0.211666 0.06778,0.318901 0.211666,0.3175 0.105834,0 0.211667,-0.105834 0.211667,-0.3175 0,0.211666 0.105833,0.3175 0.211667,0.3175 0.105833,-10e-7 0.211666,-0.105834 0.211666,-0.3175 0,-0.264584 -0.370416,-0.687917 -0.423333,-0.9525 z"
         id="path5744-5-0-0-97-4" />
      <text
         xml:space="preserve"
         style="font-style:normal;font-variant:normal;font-weight:normal;font-stretch:normal;font-size:0.494532px;line-height:0px;font-family:'Card Characters';-inkscape-font-specification:'Card Characters';fill:#ff0000;fill-opacity:1;stroke:none;stroke-width:0.00350457;stroke-miterlimit:15;stroke-dasharray:none;stroke-dashoffset:0;stroke-opacity:1"
         x="19.379129"
         y="15.140225"
         id="text5747-8"
         transform="scale(0.98711732,1.0130508)"><tspan
           id="tspan5747-2"
           style="font-style:normal;font-variant:normal;font-weight:normal;font-stretch:normal;font-size:0.494532px;line-height:0px;font-family:'Card Characters';-inkscape-font-specification:'Card Characters';stroke-width:0.00350457"
           x="19.379129"
           y="15.140225" /><tspan
           style="font-style:normal;font-variant:normal;font-weight:normal;font-stretch:normal;font-size:0.494532px;line-height:0px;font-family:'Card Characters';-inkscape-font-specification:'Card Characters';stroke-width:0.00350457"
           id="tspan5748-8"
           x="19.379129"
           y="15.140225">4</tspan></text>
      <path
         style="fill:#fc0000;fill-opacity:1;stroke:none;stroke-width:0.00312499;stroke-miterlimit:15;stroke-dasharray:none;stroke-dashoffset:0;stroke-opacity:1"
         d="m 23.575839,20.663954 c -0.01654,0.08268 -0.132291,0.214973 -0.132291,0.297655 0,0.06615 0.02118,0.09966 0.06615,0.09922 0.03307,0 0.06615,-0.03307 0.06615,-0.09922 0,0.06615 0.03307,0.09922 0.06615,0.09922 0.03307,0 0.06615,-0.03307 0.06615,-0.09922 0,-0.08268 -0.115755,-0.214973 -0.132291,-0.297655 z"
         id="path5744-5-3-7-1" />
      <text
         xml:space="preserve"
         style="font-style:normal;font-variant:normal;font-weight:normal;font-stretch:normal;font-size:0.49476px;line-height:0px;font-family:'Card Characters';-inkscape-font-specification:'Card Characters';fill:#ff0000;fill-opacity:1;stroke:none;stroke-width:0.00350617;stroke-miterlimit:15;stroke-dasharray:none;stroke-dashoffset:0;stroke-opacity:1"
         x="-24.053858"
         y="-20.891876"
         id="text5747-1-2"
         transform="scale(-0.986662,-1.0135183)"><tspan
           style="font-style:normal;font-variant:normal;font-weight:normal;font-stretch:normal;font-size:0.49476px;line-height:0px;font-family:'Card Characters';-inkscape-font-specification:'Card Characters';stroke-width:0.00350617"
           id="tspan5748-2-58"
           x="-24.053858"
           y="-20.891876">4</tspan></text>
    </g>
  </g>
</svg>
