<?xml version="1.0" encoding="UTF-8" standalone="no"?>
<!-- Created with Inkscape (http://www.inkscape.org/) -->

<svg
   width="5.3016672mm"
   height="7.4183331mm"
   viewBox="0 0 5.3016672 7.4183331"
   version="1.1"
   id="svg1"
   xmlns="http://www.w3.org/2000/svg"
   xmlns:svg="http://www.w3.org/2000/svg">
  <defs
     id="defs1">
    <linearGradient
       id="swatch55">
      <stop
         style="stop-color:#999999;stop-opacity:1;"
         offset="0"
         id="stop55" />
    </linearGradient>
  </defs>
  <g
     id="layer7"
     transform="translate(-53.70542,-30.951277)">
    <g
       id="g13">
      <path
         style="fill:#f9f9f9;fill-opacity:1;stroke:#000000;stroke-width:0.01;stroke-miterlimit:15;stroke-dasharray:none;stroke-opacity:1"
         d="m 53.71042,31.591277 c 0,-0.423333 0.211667,-0.635 0.636654,-0.635 h 4.051432 c 0.391916,0 0.603581,0.211667 0.603581,0.635 v 6.138333 c 0,0.423334 -0.211668,0.635 -0.635,0.635 H 54.34542 c -0.423333,0 -0.635,-0.211668 -0.635,-0.635 z"
         id="path5732-37" />
      <text
         xml:space="preserve"
         style="font-style:normal;font-variant:normal;font-weight:normal;font-stretch:normal;font-size:0.503712px;line-height:0px;font-family:'Card Characters Narrow Figures';-inkscape-font-specification:'Card Characters Narrow Figures, Normal';font-variant-ligatures:normal;font-variant-caps:normal;font-variant-numeric:normal;font-variant-east-asian:normal;fill:#000000;fill-opacity:1;stroke:none;stroke-width:0.00356963;stroke-miterlimit:15;stroke-dasharray:none;stroke-dashoffset:0;stroke-opacity:1"
         x="52.38158"
         y="32.742863"
         id="text5747-71"
         transform="scale(1.0316194,0.96934974)"><tspan
           id="tspan5747-33"
           style="font-style:normal;font-variant:normal;font-weight:normal;font-stretch:normal;font-size:0.503712px;line-height:0px;font-family:'Card Characters Narrow Figures';-inkscape-font-specification:'Card Characters Narrow Figures, Normal';font-variant-ligatures:normal;font-variant-caps:normal;font-variant-numeric:normal;font-variant-east-asian:normal;fill:#000000;stroke-width:0.00356963"
           x="52.38158"
           y="32.742863" /><tspan
           style="font-style:normal;font-variant:normal;font-weight:normal;font-stretch:normal;font-size:0.503712px;line-height:0px;font-family:'Card Characters Narrow Figures';-inkscape-font-specification:'Card Characters Narrow Figures, Normal';font-variant-ligatures:normal;font-variant-caps:normal;font-variant-numeric:normal;font-variant-east-asian:normal;fill:#000000;stroke-width:0.00356963"
           id="tspan5748-21"
           x="52.38158"
           y="32.742863">10</tspan></text>
      <text
         xml:space="preserve"
         style="font-style:normal;font-variant:normal;font-weight:normal;font-stretch:normal;font-size:0.507661px;line-height:0px;font-family:'Card Characters Narrow Figures';-inkscape-font-specification:'Card Characters Narrow Figures, Normal';font-variant-ligatures:normal;font-variant-caps:normal;font-variant-numeric:normal;font-variant-east-asian:normal;fill:#000000;fill-opacity:1;stroke:none;stroke-width:0.00359759;stroke-miterlimit:15;stroke-dasharray:none;stroke-dashoffset:0;stroke-opacity:1"
         x="-57.325302"
         y="-38.461739"
         id="text5747-1-40"
         transform="scale(-1.0235961,-0.97694784)"><tspan
           style="font-style:normal;font-variant:normal;font-weight:normal;font-stretch:normal;font-size:0.507661px;line-height:0px;font-family:'Card Characters Narrow Figures';-inkscape-font-specification:'Card Characters Narrow Figures, Normal';font-variant-ligatures:normal;font-variant-caps:normal;font-variant-numeric:normal;font-variant-east-asian:normal;fill:#000000;stroke-width:0.00359759"
           id="tspan5748-2-12"
           x="-57.325302"
           y="-38.461739">10</tspan></text>
      <path
         style="fill:#000000;fill-opacity:1;stroke:none;stroke-width:0.01;stroke-miterlimit:15;stroke-dasharray:none;stroke-dashoffset:0;stroke-opacity:1"
         d="m 55.29792,31.961674 c -0.05292,0.264583 -0.423334,0.582083 -0.423334,0.846672 0,0.211666 0.105833,0.317495 0.211667,0.3175 0.105833,-5e-6 0.211666,-0.105819 0.211667,-0.317486 -0.05292,0.158731 0,0.370417 -0.105834,0.423333 h 0.211667 c -0.105833,-0.05292 -0.05292,-0.264602 -0.105833,-0.423333 0,0.211647 0.105833,0.317481 0.211666,0.317481 0.105834,-1e-6 0.211667,-0.105834 0.211667,-0.3175 0,-0.264584 -0.370417,-0.582069 -0.423333,-0.846667 z"
         id="path5744-2-4-6" />
      <path
         style="fill:#000000;fill-opacity:1;stroke:none;stroke-width:0.01;stroke-miterlimit:15;stroke-dasharray:none;stroke-dashoffset:0;stroke-opacity:1"
         d="m 57.414586,31.961674 c -0.05292,0.264583 -0.423333,0.582083 -0.423333,0.846672 0,0.211666 0.105833,0.317495 0.211667,0.3175 0.105833,-5e-6 0.211666,-0.105819 0.211667,-0.317486 -0.05292,0.158731 0,0.370417 -0.105834,0.423333 h 0.211667 c -0.105833,-0.05292 -0.05292,-0.264602 -0.105833,-0.423333 -10e-7,0.211647 0.105833,0.317481 0.211666,0.317481 0.105833,-1e-6 0.211667,-0.105834 0.211667,-0.3175 0,-0.264584 -0.370417,-0.582069 -0.423334,-0.846667 z"
         id="path5744-2-17-1" />
      <path
         style="fill:#000000;fill-opacity:1;stroke:none;stroke-width:0.01;stroke-miterlimit:15;stroke-dasharray:none;stroke-dashoffset:0;stroke-opacity:1"
         d="m 57.414586,33.337508 c -0.05292,0.264583 -0.423333,0.582083 -0.423333,0.846672 0,0.211666 0.105833,0.317495 0.211667,0.3175 0.105833,-5e-6 0.211666,-0.105819 0.211667,-0.317486 -0.05292,0.158731 0,0.370417 -0.105834,0.423333 h 0.211667 c -0.105833,-0.05292 -0.05292,-0.264602 -0.105833,-0.423333 -10e-7,0.211647 0.105833,0.317481 0.211666,0.317481 0.105833,-10e-7 0.211667,-0.105834 0.211667,-0.3175 0,-0.264584 -0.370417,-0.582069 -0.423334,-0.846667 z"
         id="path5744-2-8-9" />
      <path
         style="fill:#000000;fill-opacity:1;stroke:none;stroke-width:0.01;stroke-miterlimit:15;stroke-dasharray:none;stroke-dashoffset:0;stroke-opacity:1"
         d="m 57.414586,35.98336 c -0.05292,-0.264583 -0.423333,-0.582083 -0.423333,-0.846672 0,-0.211666 0.105833,-0.317495 0.211667,-0.3175 0.105833,5e-6 0.211666,0.105819 0.211667,0.317486 -0.05292,-0.158731 0,-0.370417 -0.105834,-0.423333 h 0.211667 c -0.105833,0.05292 -0.05292,0.264602 -0.105833,0.423333 -10e-7,-0.211647 0.105833,-0.317481 0.211666,-0.317481 0.105833,1e-6 0.211667,0.105834 0.211667,0.3175 0,0.264584 -0.370417,0.582069 -0.423334,0.846667 z"
         id="path5744-2-6-6" />
      <path
         style="fill:#000000;fill-opacity:1;stroke:none;stroke-width:0.01;stroke-miterlimit:15;stroke-dasharray:none;stroke-dashoffset:0;stroke-opacity:1"
         d="m 57.414586,37.359193 c -0.05292,-0.264583 -0.423333,-0.582083 -0.423333,-0.846672 0,-0.211666 0.105833,-0.317495 0.211667,-0.3175 0.105833,5e-6 0.211666,0.105819 0.211667,0.317486 -0.05292,-0.158731 0,-0.370417 -0.105834,-0.423333 h 0.211667 c -0.105833,0.05292 -0.05292,0.264602 -0.105833,0.423333 -10e-7,-0.211647 0.105833,-0.317481 0.211666,-0.317481 0.105833,1e-6 0.211667,0.105834 0.211667,0.3175 0,0.264584 -0.370417,0.582069 -0.423334,0.846667 z"
         id="path5744-2-0-8" />
      <path
         style="fill:#000000;fill-opacity:1;stroke:none;stroke-width:0.01;stroke-miterlimit:15;stroke-dasharray:none;stroke-dashoffset:0;stroke-opacity:1"
         d="M 55.29792,37.359192 C 55.245,37.094609 54.874586,36.777109 54.874586,36.51252 c 0,-0.211666 0.105833,-0.317495 0.211667,-0.3175 0.105833,5e-6 0.211666,0.105819 0.211667,0.317486 -0.05292,-0.158731 0,-0.370417 -0.105834,-0.423333 h 0.211667 c -0.105833,0.05292 -0.05292,0.264602 -0.105833,0.423333 0,-0.211647 0.105833,-0.317481 0.211666,-0.317481 0.105834,10e-7 0.211667,0.105834 0.211667,0.3175 0,0.264584 -0.370417,0.582069 -0.423333,0.846667 z"
         id="path5744-2-3-4" />
      <path
         style="fill:#000000;fill-opacity:1;stroke:none;stroke-width:0.01;stroke-miterlimit:15;stroke-dasharray:none;stroke-dashoffset:0;stroke-opacity:1"
         d="m 56.356253,36.671277 c -0.05292,-0.264583 -0.423333,-0.582083 -0.423333,-0.846672 0,-0.211666 0.105833,-0.317495 0.211666,-0.3175 0.105834,5e-6 0.211667,0.105819 0.211667,0.317486 -0.05292,-0.158731 0,-0.370417 -0.105833,-0.423333 h 0.211667 c -0.105834,0.05292 -0.05292,0.264602 -0.105834,0.423333 0,-0.211647 0.105833,-0.317481 0.211667,-0.317481 0.105833,1e-6 0.211666,0.105834 0.211666,0.3175 0,0.264584 -0.370416,0.582069 -0.423333,0.846667 z"
         id="path5744-2-7-4" />
      <path
         style="fill:#000000;fill-opacity:1;stroke:none;stroke-width:0.01;stroke-miterlimit:15;stroke-dasharray:none;stroke-dashoffset:0;stroke-opacity:1"
         d="m 56.356253,32.649591 c -0.05292,0.264583 -0.423333,0.582083 -0.423333,0.846672 0,0.211666 0.105833,0.317495 0.211666,0.3175 0.105834,-5e-6 0.211667,-0.105819 0.211667,-0.317486 -0.05292,0.158731 0,0.370417 -0.105833,0.423333 h 0.211667 c -0.105834,-0.05292 -0.05292,-0.264602 -0.105833,-0.423333 -10e-7,0.211647 0.105833,0.317481 0.211666,0.317481 0.105833,-10e-7 0.211667,-0.105834 0.211667,-0.3175 0,-0.264584 -0.370417,-0.582069 -0.423334,-0.846667 z"
         id="path5744-2-5-1" />
      <path
         style="fill:#000000;fill-opacity:1;stroke:none;stroke-width:0.01;stroke-miterlimit:15;stroke-dasharray:none;stroke-dashoffset:0;stroke-opacity:1"
         d="m 55.29792,35.983358 c -0.05292,-0.264583 -0.423334,-0.582083 -0.423334,-0.846672 0,-0.211666 0.105833,-0.317495 0.211667,-0.3175 0.105833,5e-6 0.211666,0.105819 0.211667,0.317486 -0.05292,-0.158731 0,-0.370417 -0.105834,-0.423333 h 0.211667 c -0.105833,0.05292 -0.05292,0.264602 -0.105833,0.423333 0,-0.211647 0.105833,-0.317481 0.211666,-0.317481 0.105834,1e-6 0.211667,0.105834 0.211667,0.3175 0,0.264584 -0.370417,0.582069 -0.423333,0.846667 z"
         id="path5744-2-60-5" />
      <path
         style="fill:#000000;fill-opacity:1;stroke:none;stroke-width:0.01;stroke-miterlimit:15;stroke-dasharray:none;stroke-dashoffset:0;stroke-opacity:1"
         d="m 55.29792,33.337508 c -0.05292,0.264583 -0.423334,0.582083 -0.423334,0.846672 0,0.211666 0.105833,0.317495 0.211667,0.3175 0.105833,-5e-6 0.211666,-0.105819 0.211667,-0.317486 -0.05292,0.158731 0,0.370417 -0.105834,0.423333 h 0.211667 c -0.105833,-0.05292 -0.05292,-0.264602 -0.105833,-0.423333 0,0.211647 0.105833,0.317481 0.211666,0.317481 0.105834,-10e-7 0.211667,-0.105834 0.211667,-0.3175 0,-0.264584 -0.370417,-0.582069 -0.423333,-0.846667 z"
         id="path5744-2-09-5" />
      <path
         style="fill:#000000;fill-opacity:1;stroke:none;stroke-width:0.003125;stroke-miterlimit:15;stroke-dasharray:none;stroke-dashoffset:0;stroke-opacity:1"
         d="m 54.213128,31.855841 c -0.01654,0.08268 -0.132292,0.181901 -0.132292,0.264585 0,0.06615 0.03307,0.09922 0.06615,0.09922 0.03307,-10e-7 0.06615,-0.03307 0.06615,-0.09922 -0.01654,0.0496 0,0.115756 -0.03307,0.132292 h 0.06615 c -0.03307,-0.01654 -0.01654,-0.08269 -0.03307,-0.132292 0,0.06614 0.03307,0.09921 0.06615,0.09921 0.03307,0 0.06615,-0.03307 0.06615,-0.09922 0,-0.08268 -0.115755,-0.181896 -0.132292,-0.264583 z"
         id="path5744-2-9-1" />
      <path
         style="fill:#000000;fill-opacity:1;stroke:none;stroke-width:0.003125;stroke-miterlimit:15;stroke-dasharray:none;stroke-dashoffset:0;stroke-opacity:1"
         d="m 58.499379,37.465029 c -0.01654,-0.08268 -0.132292,-0.181901 -0.132292,-0.264585 0,-0.06615 0.03307,-0.09922 0.06615,-0.09922 0.03307,10e-7 0.06615,0.03307 0.06615,0.09922 -0.01654,-0.0496 0,-0.115756 -0.03307,-0.132292 h 0.06615 c -0.03307,0.01654 -0.01654,0.08269 -0.03307,0.132292 0,-0.06614 0.03307,-0.09921 0.06615,-0.09921 0.03307,0 0.06615,0.03307 0.06615,0.09922 0,0.08268 -0.115755,0.181896 -0.132292,0.264583 z"
         id="path5744-2-9-9-8" />
    </g>
  </g>
</svg>
