<?xml version="1.0" encoding="UTF-8" standalone="no"?>
<!-- Created with Inkscape (http://www.inkscape.org/) -->

<svg
   width="5.3016672mm"
   height="7.4183331mm"
   viewBox="0 0 5.3016672 7.4183331"
   version="1.1"
   id="svg1"
   xmlns="http://www.w3.org/2000/svg"
   xmlns:svg="http://www.w3.org/2000/svg">
  <defs
     id="defs1">
    <linearGradient
       id="swatch55">
      <stop
         style="stop-color:#999999;stop-opacity:1;"
         offset="0"
         id="stop55" />
    </linearGradient>
  </defs>
  <g
     id="layer7"
     transform="translate(-24.601251,-30.95125)">
    <g
       id="g17">
      <path
         style="fill:#f9f9f9;fill-opacity:1;stroke:#000000;stroke-width:0.01;stroke-miterlimit:15;stroke-dasharray:none;stroke-opacity:1"
         d="m 24.606251,31.59125 c 0,-0.423333 0.211667,-0.635 0.636654,-0.635 h 4.051432 c 0.391916,0 0.603581,0.211667 0.603581,0.635 v 6.138333 c 0,0.423334 -0.211668,0.635 -0.635,0.635 h -4.021667 c -0.423333,0 -0.635,-0.211668 -0.635,-0.635 z"
         id="path5732-76" />
      <path
         style="fill:#000000;fill-opacity:1;stroke:none;stroke-width:0.01;stroke-miterlimit:15;stroke-dasharray:none;stroke-dashoffset:0;stroke-opacity:1"
         d="m 26.19375,31.961647 c -0.05292,0.264583 -0.423333,0.582083 -0.423333,0.846672 0,0.211666 0.105833,0.317495 0.211667,0.3175 0.105833,-5e-6 0.211666,-0.105819 0.211667,-0.317486 -0.05292,0.158731 0,0.370417 -0.105834,0.423333 h 0.211667 c -0.105833,-0.05292 -0.05292,-0.264602 -0.105833,-0.423333 -10e-7,0.211647 0.105833,0.317481 0.211666,0.317481 0.105834,-10e-7 0.211667,-0.105834 0.211667,-0.3175 0,-0.264584 -0.370417,-0.582069 -0.423334,-0.846667 z"
         id="path5744-2-4-3" />
      <path
         style="fill:#000000;fill-opacity:1;stroke:none;stroke-width:0.01;stroke-miterlimit:15;stroke-dasharray:none;stroke-dashoffset:0;stroke-opacity:1"
         d="m 28.310417,31.961647 c -0.05292,0.264583 -0.423333,0.582083 -0.423333,0.846672 0,0.211666 0.105833,0.317495 0.211667,0.3175 0.105833,-5e-6 0.211666,-0.105819 0.211667,-0.317486 -0.05292,0.158731 0,0.370417 -0.105834,0.423333 h 0.211667 c -0.105833,-0.05292 -0.05292,-0.264602 -0.105833,-0.423333 -10e-7,0.211647 0.105833,0.317481 0.211666,0.317481 0.105833,-10e-7 0.211667,-0.105834 0.211667,-0.3175 0,-0.264584 -0.370417,-0.582069 -0.423334,-0.846667 z"
         id="path5744-2-17-31" />
      <path
         style="fill:#000000;fill-opacity:1;stroke:none;stroke-width:0.01;stroke-miterlimit:15;stroke-dasharray:none;stroke-dashoffset:0;stroke-opacity:1"
         d="m 28.310417,37.359166 c -0.05292,-0.264583 -0.423333,-0.582083 -0.423333,-0.846672 0,-0.211666 0.105833,-0.317495 0.211667,-0.3175 0.105833,5e-6 0.211666,0.105819 0.211667,0.317486 -0.05292,-0.158731 0,-0.370417 -0.105834,-0.423333 h 0.211667 c -0.105833,0.05292 -0.05292,0.264602 -0.105833,0.423333 -10e-7,-0.211647 0.105833,-0.317481 0.211666,-0.317481 0.105833,10e-7 0.211667,0.105834 0.211667,0.3175 0,0.264584 -0.370417,0.582069 -0.423334,0.846667 z"
         id="path5744-2-0-21" />
      <path
         style="fill:#000000;fill-opacity:1;stroke:none;stroke-width:0.01;stroke-miterlimit:15;stroke-dasharray:none;stroke-dashoffset:0;stroke-opacity:1"
         d="m 26.19375,37.359165 c -0.05292,-0.264583 -0.423333,-0.582083 -0.423333,-0.846672 0,-0.211666 0.105833,-0.317495 0.211667,-0.3175 0.105833,5e-6 0.211666,0.105819 0.211667,0.317486 -0.05292,-0.158731 0,-0.370417 -0.105834,-0.423333 h 0.211667 c -0.105833,0.05292 -0.05292,0.264602 -0.105833,0.423333 -10e-7,-0.211647 0.105833,-0.317481 0.211666,-0.317481 0.105834,1e-6 0.211667,0.105834 0.211667,0.3175 0,0.264584 -0.370417,0.582069 -0.423334,0.846667 z"
         id="path5744-2-3-7" />
      <path
         style="fill:#000000;fill-opacity:1;stroke:none;stroke-width:0.01;stroke-miterlimit:15;stroke-dasharray:none;stroke-dashoffset:0;stroke-opacity:1"
         d="m 27.252084,34.025396 c -0.05292,0.264583 -0.423333,0.582083 -0.423334,0.846672 0,0.211666 0.105834,0.317495 0.211667,0.3175 0.105834,-5e-6 0.211667,-0.105819 0.211667,-0.317486 -0.05292,0.158731 0,0.370417 -0.105833,0.423333 h 0.211667 c -0.105834,-0.05292 -0.05292,-0.264602 -0.105834,-0.423333 0,0.211647 0.105833,0.317481 0.211667,0.317481 0.105833,-10e-7 0.211666,-0.105834 0.211666,-0.3175 0,-0.264584 -0.370416,-0.582069 -0.423333,-0.846667 z"
         id="path5744-2-09-9" />
      <path
         style="fill:#000000;fill-opacity:1;stroke:none;stroke-width:0.003125;stroke-miterlimit:15;stroke-dasharray:none;stroke-dashoffset:0;stroke-opacity:1"
         d="m 25.108959,31.855814 c -0.01654,0.08268 -0.132292,0.181901 -0.132292,0.264585 0,0.06615 0.03307,0.09922 0.06615,0.09922 0.03307,-1e-6 0.06615,-0.03307 0.06615,-0.09921 -0.01654,0.0496 0,0.115756 -0.03307,0.132292 h 0.06615 c -0.03307,-0.01654 -0.01654,-0.08269 -0.03307,-0.132292 0,0.06614 0.03307,0.09921 0.06615,0.09921 0.03307,0 0.06615,-0.03307 0.06615,-0.09922 0,-0.08268 -0.115755,-0.181896 -0.132292,-0.264583 z"
         id="path5744-2-9-97" />
      <path
         style="fill:#000000;fill-opacity:1;stroke:none;stroke-width:0.003125;stroke-miterlimit:15;stroke-dasharray:none;stroke-dashoffset:0;stroke-opacity:1"
         d="m 29.39521,37.465002 c -0.01654,-0.08268 -0.132292,-0.181901 -0.132292,-0.264585 0,-0.06615 0.03307,-0.09922 0.06615,-0.09922 0.03307,10e-7 0.06615,0.03307 0.06615,0.09922 -0.01654,-0.0496 0,-0.115756 -0.03307,-0.132292 h 0.06615 c -0.03307,0.01654 -0.01654,0.08269 -0.03307,0.132292 0,-0.06614 0.03307,-0.09921 0.06615,-0.09921 0.03307,0 0.06615,0.03307 0.06615,0.09922 0,0.08268 -0.115755,0.181896 -0.132292,0.264583 z"
         id="path5744-2-9-9-76" />
      <text
         xml:space="preserve"
         style="font-style:normal;font-variant:normal;font-weight:normal;font-stretch:normal;font-size:0.481436px;line-height:0px;font-family:'Card Characters';-inkscape-font-specification:'Card Characters';fill:#000000;fill-opacity:1;stroke:none;stroke-width:0.00341176;stroke-miterlimit:15;stroke-dasharray:none;stroke-dashoffset:0;stroke-opacity:1"
         x="25.293127"
         y="31.308905"
         id="text5747-1-8-6-5"
         transform="scale(0.986662,1.0135183)"><tspan
           style="font-style:normal;font-variant:normal;font-weight:normal;font-stretch:normal;font-size:0.481436px;line-height:0px;font-family:'Card Characters';-inkscape-font-specification:'Card Characters';fill:#000000;stroke-width:0.00341176"
           id="tspan5748-2-1-2-02"
           x="25.293127"
           y="31.308905">5</tspan></text>
      <text
         xml:space="preserve"
         style="font-style:normal;font-variant:normal;font-weight:normal;font-stretch:normal;font-size:0.481436px;line-height:0px;font-family:'Card Characters';-inkscape-font-specification:'Card Characters';fill:#000000;fill-opacity:1;stroke:none;stroke-width:0.00341174;stroke-miterlimit:15;stroke-dasharray:none;stroke-dashoffset:0;stroke-opacity:1"
         x="-29.947847"
         y="-37.087326"
         id="text5747-1-8-6-7-7"
         transform="scale(-0.986662,-1.0135183)"><tspan
           style="font-style:normal;font-variant:normal;font-weight:normal;font-stretch:normal;font-size:0.481436px;line-height:0px;font-family:'Card Characters';-inkscape-font-specification:'Card Characters';fill:#000000;stroke-width:0.00341174"
           id="tspan5748-2-1-2-4-2"
           x="-29.947847"
           y="-37.087326">5</tspan></text>
    </g>
  </g>
</svg>
