<?xml version="1.0" encoding="UTF-8" standalone="no"?>
<!-- Created with Inkscape (http://www.inkscape.org/) -->

<svg
   width="5.3016672mm"
   height="7.4183331mm"
   viewBox="0 0 5.3016672 7.4183331"
   version="1.1"
   id="svg1"
   xmlns="http://www.w3.org/2000/svg"
   xmlns:svg="http://www.w3.org/2000/svg">
  <defs
     id="defs1">
    <linearGradient
       id="swatch55">
      <stop
         style="stop-color:#999999;stop-opacity:1;"
         offset="0"
         id="stop55" />
    </linearGradient>
  </defs>
  <g
     id="layer7"
     transform="translate(-1.3179167,-30.951249)">
    <g
       id="g39">
      <path
         style="fill:#f9f9f9;fill-opacity:1;stroke:#000000;stroke-width:0.01;stroke-miterlimit:15;stroke-dasharray:none;stroke-opacity:1"
         d="m 1.3229167,31.591249 c 0,-0.423333 0.2116668,-0.635 0.6366536,-0.635 h 4.0514322 c 0.391916,0 0.6035812,0.211667 0.6035812,0.635 v 6.138333 c 0,0.423334 -0.2116679,0.635 -0.635,0.635 H 1.9579169 c -0.4233335,0 -0.6350002,-0.211668 -0.6350002,-0.635 z"
         id="path5732-516" />
      <text
         xml:space="preserve"
         style="font-style:normal;font-variant:normal;font-weight:normal;font-stretch:normal;font-size:0.489343px;line-height:0px;font-family:'Card Characters';-inkscape-font-specification:'Card Characters';fill:#000000;fill-opacity:1;stroke:none;stroke-width:0.00346779;stroke-miterlimit:15;stroke-dasharray:none;stroke-dashoffset:0;stroke-opacity:1"
         x="1.6912681"
         y="31.314497"
         id="text5747-1-8-6-18"
         transform="scale(0.986662,1.0135183)"><tspan
           style="font-style:normal;font-variant:normal;font-weight:normal;font-stretch:normal;font-size:0.489343px;line-height:0px;font-family:'Card Characters';-inkscape-font-specification:'Card Characters';fill:#000000;stroke-width:0.00346779"
           id="tspan5748-2-1-2-19"
           x="1.6912681"
           y="31.314497">A</tspan></text>
      <text
         xml:space="preserve"
         style="font-style:normal;font-variant:normal;font-weight:normal;font-stretch:normal;font-size:0.489343px;line-height:0px;font-family:'Card Characters';-inkscape-font-specification:'Card Characters';fill:#000000;fill-opacity:1;stroke:none;stroke-width:0.00346775;stroke-miterlimit:15;stroke-dasharray:none;stroke-dashoffset:0;stroke-opacity:1"
         x="-6.3535337"
         y="-37.081734"
         id="text5747-1-8-6-7-74"
         transform="scale(-0.986662,-1.0135183)"><tspan
           style="font-style:normal;font-variant:normal;font-weight:normal;font-stretch:normal;font-size:0.489343px;line-height:0px;font-family:'Card Characters';-inkscape-font-specification:'Card Characters';fill:#000000;stroke-width:0.00346775"
           id="tspan5748-2-1-2-4-05"
           x="-6.3535337"
           y="-37.081734">A</tspan></text>
      <path
         style="fill:#1a1a1a;fill-opacity:1;stroke:none;stroke-width:0.02;stroke-miterlimit:15;stroke-dasharray:none;stroke-dashoffset:0;stroke-opacity:1"
         d="m 3.9687499,33.390396 c -0.105834,0.529166 -0.8466668,1.164167 -0.846667,1.693344 0,0.423332 0.2116669,0.634991 0.4233335,0.635001 0.2116669,-1e-5 0.4233333,-0.211639 0.4233341,-0.634973 -0.105834,0.317462 0,0.740835 -0.2116666,0.846667 H 4.1804174 C 3.9687505,35.824603 4.0745833,35.40123 3.9687511,35.083768 c -1.2e-6,0.423294 0.2116657,0.634963 0.4233323,0.634963 0.2116669,-2e-6 0.4233335,-0.211669 0.4233335,-0.635001 0,-0.529167 -0.7408336,-1.164138 -0.846667,-1.693334 z"
         id="path5744-2-0-23" />
      <path
         style="fill:#ffffff;fill-opacity:1;stroke:none;stroke-width:0.01;stroke-miterlimit:15"
         d="m 3.1750002,34.977916 c 0.1058333,-0.423334 0.6879167,-1.058334 0.7937499,-1.42875 1e-7,0.211666 -0.1306362,0.48534 -0.2116666,0.687916 -0.1058333,0.264584 -0.2911906,0.582084 -0.3704166,0.687917 -0.1143389,0.152738 -0.2645834,0.264583 -0.2116667,0.05292 z"
         id="path37-2" />
      <path
         style="fill:#800080;fill-opacity:1;stroke:none;stroke-width:0.01;stroke-miterlimit:15"
         d="m 4.3920835,35.665832 c 0.1587501,0 0.3704168,-0.15875 0.3704167,-0.582083 0,-0.211667 -0.15875,-0.47625 -0.3175,-0.740833 0.2116667,0.582083 0.1058333,0.9525 0,1.11125 -0.1058333,0.15875 -0.105834,0.211666 -0.052917,0.211666 z"
         id="path38-7" />
      <path
         style="fill:#800080;fill-opacity:1;stroke:none;stroke-width:0.01;stroke-miterlimit:15"
         d="m 3.5454168,35.665832 c 0.2116667,0 0.3704167,-0.211666 0.3704167,-0.687916 -0.1058333,0.353673 -0.2116667,0.423333 -0.3175,0.529166 -0.1058333,0.105834 -0.105834,0.15875 -0.052917,0.15875 z"
         id="path38-4-0" />
      <path
         style="fill:#000000;fill-opacity:1;stroke:none;stroke-width:0.003125;stroke-miterlimit:15;stroke-dasharray:none;stroke-dashoffset:0;stroke-opacity:1"
         d="m 6.1052605,37.464999 c -0.016536,-0.08268 -0.1322918,-0.181901 -0.1322918,-0.264585 0,-0.06615 0.033073,-0.09922 0.066146,-0.09922 0.033073,10e-7 0.066146,0.03307 0.066146,0.09922 -0.016536,-0.0496 0,-0.115756 -0.033073,-0.132292 h 0.066146 c -0.033073,0.01654 -0.016537,0.08269 -0.033073,0.132292 -2e-7,-0.06614 0.033073,-0.09921 0.066146,-0.09921 0.033073,0 0.066146,0.03307 0.066146,0.09922 0,0.08268 -0.1157554,0.181896 -0.1322922,0.264583 z"
         id="path5744-2-7-44-7" />
      <path
         style="fill:#000000;fill-opacity:1;stroke:none;stroke-width:0.003125;stroke-miterlimit:15;stroke-dasharray:none;stroke-dashoffset:0;stroke-opacity:1"
         d="m 1.8256246,31.855832 c -0.016536,0.08268 -0.1322918,0.181901 -0.1322918,0.264586 0,0.06615 0.033073,0.09922 0.066146,0.09922 0.033073,-2e-6 0.066146,-0.03307 0.066146,-0.09922 -0.016536,0.0496 0,0.115755 -0.033073,0.132291 h 0.066146 c -0.033073,-0.01654 -0.016537,-0.08269 -0.033073,-0.132291 -2e-7,0.06614 0.033073,0.09921 0.066146,0.09921 0.033073,-10e-7 0.066146,-0.03307 0.066146,-0.09922 0,-0.08268 -0.1157554,-0.181897 -0.1322922,-0.264584 z"
         id="path5744-2-7-0" />
    </g>
  </g>
</svg>
