<?xml version="1.0" encoding="UTF-8" standalone="no"?>
<!-- Created with Inkscape (http://www.inkscape.org/) -->

<svg
   width="5.3016672mm"
   height="7.4183331mm"
   viewBox="0 0 5.3016672 7.4183331"
   version="1.1"
   id="svg1"
   xmlns="http://www.w3.org/2000/svg"
   xmlns:svg="http://www.w3.org/2000/svg">
  <defs
     id="defs1">
    <linearGradient
       id="swatch55">
      <stop
         style="stop-color:#999999;stop-opacity:1;"
         offset="0"
         id="stop55" />
    </linearGradient>
  </defs>
  <g
     id="layer7"
     transform="translate(-7.1387507,-30.95125)">
    <g
       id="g20">
      <path
         style="fill:#f9f9f9;fill-opacity:1;stroke:#000000;stroke-width:0.01;stroke-miterlimit:15;stroke-dasharray:none;stroke-opacity:1"
         d="m 7.1437507,31.59125 c 0,-0.423333 0.2116668,-0.635 0.6366536,-0.635 h 4.0514317 c 0.391916,0 0.603582,0.211667 0.603582,0.635 v 6.138333 c 0,0.423334 -0.211668,0.635 -0.635,0.635 H 7.7787509 c -0.4233335,0 -0.6350002,-0.211668 -0.6350002,-0.635 z"
         id="path5732-00" />
      <path
         style="fill:#000000;fill-opacity:1;stroke:none;stroke-width:0.01;stroke-miterlimit:15;stroke-dasharray:none;stroke-dashoffset:0;stroke-opacity:1"
         d="m 9.7895836,31.961647 c -0.052917,0.264583 -0.4233333,0.582083 -0.4233334,0.846672 0,0.211666 0.1058334,0.317495 0.2116667,0.3175 0.1058334,-5e-6 0.2116666,-0.105819 0.211667,-0.317486 -0.052917,0.158731 0,0.370417 -0.1058333,0.423333 h 0.2116667 c -0.1058334,-0.05292 -0.052917,-0.264602 -0.1058331,-0.423333 -6e-7,0.211647 0.1058328,0.317481 0.2116658,0.317481 0.105834,-10e-7 0.211667,-0.105834 0.211667,-0.3175 0,-0.264584 -0.3704167,-0.582069 -0.4233334,-0.846667 z"
         id="path5744-2-4-0" />
      <path
         style="fill:#000000;fill-opacity:1;stroke:none;stroke-width:0.01;stroke-miterlimit:15;stroke-dasharray:none;stroke-dashoffset:0;stroke-opacity:1"
         d="m 9.7895836,37.359186 c -0.052917,-0.264583 -0.4233333,-0.582083 -0.4233334,-0.846672 0,-0.211666 0.1058334,-0.317495 0.2116667,-0.3175 0.1058334,5e-6 0.2116666,0.105819 0.211667,0.317486 -0.052917,-0.158731 0,-0.370417 -0.1058333,-0.423333 h 0.2116667 c -0.1058334,0.05292 -0.052917,0.264602 -0.1058331,0.423333 -6e-7,-0.211647 0.1058328,-0.317481 0.2116658,-0.317481 0.105834,10e-7 0.211667,0.105834 0.211667,0.3175 0,0.264584 -0.3704167,0.582069 -0.4233334,0.846667 z"
         id="path5744-2-0-9" />
      <path
         style="fill:#000000;fill-opacity:1;stroke:none;stroke-width:0.003125;stroke-miterlimit:15;stroke-dasharray:none;stroke-dashoffset:0;stroke-opacity:1"
         d="m 7.6464589,31.855814 c -0.016536,0.08268 -0.1322918,0.181901 -0.1322918,0.264585 0,0.06615 0.033073,0.09922 0.066146,0.09922 0.033073,-1e-6 0.066146,-0.03307 0.066146,-0.09922 -0.016536,0.0496 0,0.115756 -0.033073,0.132292 h 0.066146 c -0.033073,-0.01654 -0.016537,-0.08269 -0.033073,-0.132292 -2e-7,0.06614 0.033073,0.09921 0.066146,0.09921 0.033073,0 0.066146,-0.03307 0.066146,-0.09922 0,-0.08268 -0.1157554,-0.181896 -0.1322922,-0.264583 z"
         id="path5744-2-9-21" />
      <path
         style="fill:#000000;fill-opacity:1;stroke:none;stroke-width:0.003125;stroke-miterlimit:15;stroke-dasharray:none;stroke-dashoffset:0;stroke-opacity:1"
         d="m 11.932709,37.465002 c -0.01654,-0.08268 -0.132291,-0.181901 -0.132291,-0.264585 0,-0.06615 0.03307,-0.09922 0.06615,-0.09922 0.03307,10e-7 0.06615,0.03307 0.06615,0.09921 -0.01654,-0.0496 0,-0.115756 -0.03307,-0.132292 h 0.06615 c -0.03307,0.01654 -0.01654,0.08269 -0.03307,0.132292 -10e-7,-0.06614 0.03307,-0.09921 0.06615,-0.09921 0.03307,0 0.06615,0.03307 0.06615,0.09922 0,0.08268 -0.115756,0.181896 -0.132293,0.264583 z"
         id="path5744-2-9-9-3" />
      <text
         xml:space="preserve"
         style="font-style:normal;font-variant:normal;font-weight:normal;font-stretch:normal;font-size:0.500299px;line-height:0px;font-family:'Card Characters';-inkscape-font-specification:'Card Characters';fill:#000000;fill-opacity:1;stroke:none;stroke-width:0.00354543;stroke-miterlimit:15;stroke-dasharray:none;stroke-dashoffset:0;stroke-opacity:1"
         x="7.5872288"
         y="31.331585"
         id="text5747-1-8-6-9"
         transform="scale(0.986662,1.0135183)"><tspan
           style="font-style:normal;font-variant:normal;font-weight:normal;font-stretch:normal;font-size:0.500299px;line-height:0px;font-family:'Card Characters';-inkscape-font-specification:'Card Characters';fill:#000000;stroke-width:0.00354543"
           id="tspan5748-2-1-2-05"
           x="7.5872288"
           y="31.331585">2</tspan></text>
      <text
         xml:space="preserve"
         style="font-style:normal;font-variant:normal;font-weight:normal;font-stretch:normal;font-size:0.500299px;line-height:0px;font-family:'Card Characters';-inkscape-font-specification:'Card Characters';fill:#000000;fill-opacity:1;stroke:none;stroke-width:0.00354541;stroke-miterlimit:15;stroke-dasharray:none;stroke-dashoffset:0;stroke-opacity:1"
         x="-12.256618"
         y="-37.064651"
         id="text5747-1-8-6-7-89"
         transform="scale(-0.986662,-1.0135183)"><tspan
           style="font-style:normal;font-variant:normal;font-weight:normal;font-stretch:normal;font-size:0.500299px;line-height:0px;font-family:'Card Characters';-inkscape-font-specification:'Card Characters';fill:#000000;stroke-width:0.00354541"
           id="tspan5748-2-1-2-4-3"
           x="-12.256618"
           y="-37.064651">2</tspan></text>
    </g>
  </g>
</svg>
